<svg xmlns="http://www.w3.org/2000/svg" viewBox="0 0 27 38.2" enable-background="new 0 0 27 38.2"><path fill="#F9FCEA" d="M3.9 17.1c.4.3.7.7.9 1.2l-.8.8.8.9c-.2.5-.5.9-.9 1.2l-2-2 2-2.1zm.9 2.9c.2-.3.2-.6.2-.9 0-.3 0-.6-.2-.8l-.8.8.8.9zM0 19.1c0 1.4 1.1 2.5 2.5 2.5.5 0 1-.2 1.4-.5l-2-2 2-2c-.4-.3-.9-.5-1.4-.5-1.4 0-2.5 1.2-2.5 2.5zm20.6-4.6h.5c.3 0 .7 0 1 .1.7-2.8 2.1-5.3 3.9-7.5L24.9 6c-2.1 2.4-3.6 5.3-4.3 8.5zm.5 9.3h-.5c.8 3.2 2.3 6.1 4.3 8.5l1.1-1.1c-1.8-2.1-3.2-4.7-3.9-7.5-.3.1-.7.1-1 .1zM3.9 21.2l17.1 17 6-6-1-1-5 5L4.8 20c-.1.5-.4.9-.9 1.2zm0-4.1c.4.3.7.7.9 1.2L21 2.1l5 5L27 6l-6-6L3.9 17.1zm6.1 2l14-14-1-1-15.1 15L23 34.2l1.1-1.1-14.1-14zm12.1-4.5c2.1.5 3.7 2.3 3.7 4.6 0 2.2-1.6 4.1-3.7 4.6-.1-.4-.2-.8-.3-1.3 1.5-.3 2.6-1.7 2.6-3.3 0-1.6-1.1-3-2.6-3.3.1-.5.2-.9.3-1.3zm-1.5-.1c-.1.4-.2.9-.3 1.4-1.5.4-2.6 1.7-2.6 3.3 0 1.6 1.1 2.9 2.6 3.3.1.5.2.9.3 1.4-2.3-.3-4.2-2.2-4.2-4.6 0-2.6 1.8-4.5 4.2-4.8zm0 0c-.1.4-.2.9-.3 1.4.3-.1.5-.1.8-.1.2 0 .5 0 .7.1.1-.4.2-.8.3-1.3-.3-.1-.7-.1-1-.1h-.5zm-.3 7.9c.1.5.2.9.3 1.4h.5c.3 0 .7 0 1-.1-.1-.4-.2-.8-.3-1.3-.2 0-.5.1-.7.1-.3 0-.6 0-.8-.1z"/></svg>