<?xml version="1.0" encoding="utf-8"?>
<!-- Generator: Adobe Illustrator 18.1.1, SVG Export Plug-In . SVG Version: 6.00 Build 0)  -->
<!DOCTYPE svg PUBLIC "-//W3C//DTD SVG 1.1//EN" "http://www.w3.org/Graphics/SVG/1.1/DTD/svg11.dtd">
<svg version="1.1" id="Layer_1" xmlns="http://www.w3.org/2000/svg" xmlns:xlink="http://www.w3.org/1999/xlink" x="0px" y="0px"
	 viewBox="0 0 27 38.2" enable-background="new 0 0 27 38.2" xml:space="preserve">
<g id="circle-nt_1_">
</g>
<g id="circle-nt">
</g>
<g id="diamond-nt">
</g>
<g id="sm-circle-nt">
	<g id="sm-circle-nt_1_">
	</g>
</g>
<g id="circle-nt_2_">
</g>
<g>
	<g>
		<path fill="#F9FCEA" d="M3.9,17.1c0.4,0.3,0.7,0.7,0.9,1.2L4,19.1L4.8,20c-0.2,0.5-0.5,0.9-0.9,1.2l-2-2L3.9,17.1z M4.8,20
			C5,19.7,5,19.4,5,19.1c0-0.3,0-0.6-0.2-0.8L4,19.1L4.8,20z M0,19.1c0,1.4,1.1,2.5,2.5,2.5c0.5,0,1-0.2,1.4-0.5l-2-2l2-2
			c-0.4-0.3-0.9-0.5-1.4-0.5C1.1,16.6,0,17.8,0,19.1z M20.6,14.5c0.2,0,0.3,0,0.5,0c0.3,0,0.7,0,1,0.1c0.7-2.8,2.1-5.3,3.9-7.5
			L24.9,6C22.8,8.4,21.3,11.3,20.6,14.5z M21.1,23.8c-0.2,0-0.4,0-0.5,0c0.8,3.2,2.3,6.1,4.3,8.5l1.1-1.1c-1.8-2.1-3.2-4.7-3.9-7.5
			C21.8,23.8,21.4,23.8,21.1,23.8z M3.9,21.2L21,38.2l6-6L26,31.2l-5,5L4.8,20C4.7,20.5,4.4,20.9,3.9,21.2z M3.9,17.1
			c0.4,0.3,0.7,0.7,0.9,1.2L21,2.1l5,5L27,6l-6-6L3.9,17.1z M10,19.1l14-14L23,4.1L7.9,19.1L23,34.2l1.1-1.1L10,19.1z M22.1,14.6
			c2.1,0.5,3.7,2.3,3.7,4.6c0,2.2-1.6,4.1-3.7,4.6c-0.1-0.4-0.2-0.8-0.3-1.3c1.5-0.3,2.6-1.7,2.6-3.3c0-1.6-1.1-3-2.6-3.3
			C21.9,15.4,22,15,22.1,14.6z M20.6,14.5c-0.1,0.4-0.2,0.9-0.3,1.4c-1.5,0.4-2.6,1.7-2.6,3.3c0,1.6,1.1,2.9,2.6,3.3
			c0.1,0.5,0.2,0.9,0.3,1.4c-2.3-0.3-4.2-2.2-4.2-4.6C16.4,16.7,18.2,14.8,20.6,14.5z M20.6,14.5c-0.1,0.4-0.2,0.9-0.3,1.4
			c0.3-0.1,0.5-0.1,0.8-0.1c0.2,0,0.5,0,0.7,0.1c0.1-0.4,0.2-0.8,0.3-1.3c-0.3-0.1-0.7-0.1-1-0.1C20.9,14.5,20.7,14.5,20.6,14.5z
			 M20.3,22.4c0.1,0.5,0.2,0.9,0.3,1.4c0.2,0,0.3,0,0.5,0c0.3,0,0.7,0,1-0.1c-0.1-0.4-0.2-0.8-0.3-1.3c-0.2,0-0.5,0.1-0.7,0.1
			C20.8,22.5,20.5,22.5,20.3,22.4z"/>
	</g>
</g>
<g id="sm-filled-circle-nt">
</g>
</svg>
