<svg id="tnt-logo-vert"
	            		xmlns='http://www.w3.org/2000/svg'
	            		viewBox="0 0 100 90">
            			<defs>
            				<g id="the-night-thief">
            					<path fill="#bbbdbf" id="bar" class="name-text-svg" d="M15.5,68.8c22.6-0.2,45.2-0.4,67.7-0.5c0-0.9,0-1.6,0-2.4c-22.6,0-45.1,0-67.7,0C15.5,66.8,15.5,67.7,15.5,68.8z"/>
            					<path fill="#bbbdbf" id="F" class="name-text-svg" d="M73.3,56c0-0.7,0-1.3,0-1.9c0-0.5,0.2-0.6,0.6-0.6c1.6,0,3.3,0,4.9,0c0.3,0,0.5-0.1,0.8-0.1c1.1,0,2.1,0.1,3.2,0.2c0-1.1,0-2.1,0-3.1c-0.2,0-0.4,0-0.5,0c-4.1,0-8.3,0-12.4,0c-0.5,0-0.6,0.2-0.6,0.6c0,3.9,0,7.9,0,11.8c0,0.2,0,0.3,0,0.5c1.2,0,2.4,0,3.7,0c0.1,0,0.2-0.3,0.2-0.4c0-0.7,0-1.3,0-2c0-0.7,0-1.3,0-2c3.1,0,6.1,0,9.1,0c0-1,0-1.9,0-2.9C79.4,56,76.4,56,73.3,56z"/>
            					<path fill="#bbbdbf" id="E" class="name-text-svg" d="M68,55.5c-0.3,0-0.5,0-0.8,0c-2.8,0-5.6,0.1-8.3,0.1c-0.2,0-0.4,0-0.6-0.1c-0.4-0.2-0.5-0.4-0.2-0.8
            					c0.1-0.2,0.2-0.4,0.2-0.6c-0.1-0.6,0.2-0.7,0.7-0.7c3,0,5.9,0,8.9-0.1c0.2,0,0.4,0,0.6,0c0-1,0-1.9,0-2.8c-4.7,0-9.4,0-14.1,0
            					c0,4.4,0,8.6,0,12.9c4.9,0,9.6,0,14.4,0c0-1.1,0-2.1,0-3.1c-0.3,0-0.5,0-0.7,0c-2.6,0-5.3,0.1-7.9,0.1c-0.6,0-1.2,0-1.8-0.1
            					c0-0.6,0-1.3-0.1-1.9c0,0,0-0.1,0.1-0.2c3.1,0,6.3,0,9.5,0C68,57.3,68,56.4,68,55.5z"/>
            					<path fill="#bbbdbf" id="I" class="name-text-svg" d="M53.1,51.1c0-0.1,0.1-0.3,0.2-0.5c0,0-0.2-0.2-0.3-0.2c-1.1,0-2.2,0-3.3,0c-0.1,0-0.2,0.1-0.4,0.3
            					c0.3,0.1,0.5,0.2,0.8,0.3c-0.3,0.2-0.5,0.2-0.7,0.3c0,4,0,8,0,12c1.3,0,2.6,0,3.8,0c0-0.1,0-0.2,0-0.3c0-3.8,0-7.6,0-11.3
            					C53.2,51.5,53.1,51.3,53.1,51.1z"/>
            					<path fill="#bbbdbf" id="H_1_" class="name-text-svg" d="M35.8,55.1c0-1.3,0-2.6,0-3.9c0-0.6-0.2-0.8-0.8-0.7c-0.8,0-1.5,0.1-2.3,0c-0.8-0.1-1,0.3-1,1
            					c0,3.8,0,7.6,0,11.4c0,0.2,0,0.4,0,0.6c1.2,0,2.4,0,3.6,0c0.1,0,0.3-0.3,0.3-0.4c0-0.8,0-1.7,0-2.5c0-0.6,0-1.3,0-1.9
            					c2.9,0,5.6,0,8.4,0c0.3,0.7-0.3,1.6,0.5,2.2c-0.7,0.8-0.3,1.7-0.4,2.7c1.3,0,2.5,0,3.6,0c0.1,0,0.3-0.3,0.3-0.5c0-4,0-8,0-12
            					c0-0.3-0.1-0.5-0.5-0.5c-1,0-2,0-3,0c-0.4,0-0.5,0.2-0.5,0.5c0,0.9,0,1.8,0,2.7c0,0.5,0,0.9,0,1.4C41.4,55.1,38.7,55.1,35.8,55.1z"
            					/>
            					<path fill="#bbbdbf" id="T" class="name-text-svg" d="M25.7,53.7c2,0,3.8,0,5.7,0c0-0.7,0-1.5,0-2.2c0-0.9,0-1-0.9-1c-4.5-0.1-9.1-0.2-13.6-0.2
            					c-0.2,0-0.4,0-0.6,0c0,1.1,0,2.1,0,3.2c1.8,0,3.7,0,5.5,0c0,3.3,0,6.5,0,9.8c1.2,0,2.5,0,3.9,0C25.7,60.2,25.7,57,25.7,53.7z"/>
            					<path fill="#bbbdbf" id="T_2_" class="name-text-svg" d="M77,40.1c-0.1,0.1-0.3,0.3-0.3,0.5c0,2.5,0,5.1,0,7.6c0,0.1,0.2,0.4,0.3,0.4c1.2,0,2.4,0,3.6,0
            					c0-3.3,0-6.5,0-9.8c1.9,0,3.7,0,5.5,0c0-1.1,0-2.1,0-3.1c-5,0-10,0-15.1,0c0,1.1,0,2.1,0,3.1c0.3,0,0.5,0,0.8,0
            					c0.2,0,0.4-0.2,0.4-0.2c0.6,0.5,1.3,0.2,1.9,0.2c0.8,0.1,1.6,0,2.3,0C76.8,39.4,76.9,39.8,77,40.1z"/>
            					<path fill="#bbbdbf" id="GH" class="name-text-svg" d="M54,39.7c0-0.4,0-0.6,0-0.9c-0.2-1.9-1-2.9-2.9-3.2c-0.7-0.1-1.5-0.1-2.2-0.1
            					c-1.8,0.1-3.6,0.2-5.4,0.3c-1.1,0.1-2.3,0.2-3.4,0.5c-1.4,0.3-2.4,1.2-2.7,2.7c-0.1,0.6-0.2,1.2-0.1,1.7c0.1,1.5,0.2,3,0.3,4.4
            					c0.2,2.5,1.6,3.9,4.1,3.9c3-0.1,6-0.3,9-0.5c1.3-0.1,2.7-0.3,3.6-1.7c0,0.6,0,1.2,0,1.9c1.3,0,2.5,0,3.6,0c0.1,0,0.3-0.3,0.3-0.4
            					c0-0.9,0-1.8,0-2.7c0-0.6,0-1.1,0-1.7c2.9,0,5.6,0,8.5,0c0,1.6,0,3.2,0,4.9c1.1,0,2.2,0,3.2,0c0.6,0,0.7-0.2,0.7-0.7
            					c0-3.8,0-7.7,0-11.5c0-0.2,0-0.4,0-0.7c-1.3,0-2.6,0-4,0c0,1.6,0,3,0,4.6c-2.7,0-5.4,0-8.1,0c-0.4,0-0.4-0.2-0.4-0.5
            					c0-0.9,0-1.9,0-2.8c0-1.4,0-1.4-1.4-1.4c-0.8,0-1.7,0-2.6,0c0,1.7,0,3.3,0,5c-3,0.2-5.9,0.4-8.9,0.6c0.1,0.9,0.1,1.7,0.2,2.6
            					c1.7-0.1,3.3-0.2,4.9-0.3c0.1,1.2-0.2,1.8-1.3,1.9c-1.9,0.2-3.8,0.3-5.7,0.4c-1.1,0-1.7-0.5-1.8-1.5c-0.2-1.3-0.2-2.5-0.2-3.8
            					c0-0.9,0.5-1.3,1.3-1.7c0.5-0.2,1-0.5,1.5-0.1c0,0,0,0,0.1,0c0.7-0.1,1.5-0.1,2.2-0.1c0.8,0,1.7-0.1,2.5-0.1c0.8,0,1,0.3,1.2,1
            					c0,0.1,0.1,0.2,0.1,0.3C51.5,39.9,52.7,39.8,54,39.7z"/>
            					<path fill="#bbbdbf" id="I_1_" class="name-text-svg" d="M32.6,48.8c1.1,0,2.2,0,3.2,0c0.5,0,0.7-0.1,0.7-0.7c0-3.9,0-7.8,0-11.6c0-0.2,0-0.4,0-0.6
            					c-1.3,0-2.6,0-3.9,0C32.6,40.2,32.6,44.5,32.6,48.8z"/>
            					<path fill="#bbbdbf" id="N" class="name-text-svg" d="M31.4,48.8c0-4.3,0-8.6,0-12.9c-1.1,0-2.2,0-3.3,0c-0.5,0-0.7,0.1-0.7,0.6c0,2.7,0,5.4,0,8.1
            					c0,0.2,0,0.4,0,0.7c-0.2-0.3-0.4-0.4-0.5-0.5c-1.2-1.5-2.3-3-3.5-4.4c-0.2-0.2-0.4-0.4-0.6-0.7C22.4,39,22,38.2,21,38.2
            					c-0.1,0-0.2-0.1-0.4-0.1c0.4-0.1,0.6-0.2,0.9-0.2c-0.5-0.6-0.8-1.1-1.3-1.6c-0.2-0.2-0.5-0.4-0.8-0.4c-1.7,0-3.4,0-5,0
            					c-0.5,0-0.6,0.2-0.6,0.7c0,3.9,0,7.8,0,11.6c0,0.2,0,0.4,0,0.7c1.1,0,2.2,0,3.3,0c0.5,0,0.7-0.1,0.7-0.6c0-2.7,0-5.4,0-8.1
            					c0-0.2,0-0.4,0-0.6c0.3,0.1,0.4,0.3,0.6,0.5c2.2,2.8,4.4,5.6,6.7,8.4c0.1,0.2,0.4,0.4,0.6,0.4C27.5,48.8,29.4,48.8,31.4,48.8z"/>
            					<path fill="#bbbdbf" id="E_1_" class="name-text-svg" d="M61.9,28.8c3.2,0,6.4,0,9.6,0c0-0.9,0-1.7,0-2.6c-3.2,0-6.4,0-9.6,0c0-0.7,0-1.4,0-2.1
            					c3.4,0,6.8,0,10.1,0c0-1,0-1.9,0-2.9c-4.7,0-9.4,0-14.1,0c0,4.3,0,8.6,0,12.9c4.8,0,9.5,0,14.3,0c0-0.8,0-1.6,0-2.3
            					c0-0.6-0.2-0.7-0.7-0.7c-3,0-6,0-9,0c-0.2,0-0.5,0-0.8,0C61.9,30.3,61.9,29.6,61.9,28.8z"/>
            					<path fill="#bbbdbf" id="H" class="name-text-svg" d="M40.7,34.2c1.2,0,2.4,0,3.6,0c0.1,0,0.3-0.3,0.3-0.4c0-0.8,0-1.5,0-2.3c0-0.7,0-1.4,0-2.1
            					c2.9,0,5.7,0,8.5,0c0,1.6,0,3.2,0,4.9c1.1,0,2.2,0,3.3,0c0.5,0,0.7-0.1,0.6-0.7c0-3.9,0-7.8,0-11.6c0-0.2,0-0.4,0-0.6
            					c-1.3,0-2.6,0-3.9,0c0,1.5,0,3,0,4.6c-2.7,0-5.4,0-8.1,0c-0.1,0-0.3-0.3-0.3-0.5c0-1.1,0-2.1,0-3.2c0-1.1,0.1-1-0.9-1c-1,0-2,0-3,0
            					C40.7,25.6,40.7,29.9,40.7,34.2z"/>
            					<path fill="#bbbdbf" id="T_1_" class="name-text-svg" d="M40.1,24.4c0-1.1,0-2.1,0-3.2c-0.3,0-0.5,0-0.7,0c-3.3,0-6.6,0-9.8,0c-1.3,0-2.7,0-4,0
            					c-0.2,0-0.5,0.1-0.5,0.2c0,1,0,1.9,0,3c1.7,0,3.3,0,5,0c0.5,0,0.7,0.1,0.6,0.6c0,2.8,0,5.6,0,8.4c0,0.2,0,0.4,0,0.7
            					c1.3,0,2.6,0,3.9,0c0-3.3,0-6.5,0-9.7C36.5,24.4,38.3,24.4,40.1,24.4z"/>
            				</g>
            				<g id="black-dots">
            					<path fill="#231f20" class="logo-dots" d="M34.6,67.8c-0.2,0.2-0.3,0.3-0.4,0.3c-0.1,0-0.3-0.2-0.3-0.3c0-0.2,0.2-0.3,0.3-0.4C34.3,67.6,34.4,67.7,34.6,67.8z"/>
            					<path fill="#231f20" class="logo-dots" d="M32,68.1c-0.1,0-0.1,0.1-0.2,0.1c-0.2,0-0.4,0-0.6-0.1c0-0.1,0.1-0.3,0.1-0.3c0.2,0,0.5,0,0.7,0.1C32,68,32,68,32,68.1z"/>
            					<path fill="#231f20" class="logo-dots" d="M31.1,40.8c-0.6-0.2-0.8-0.5-0.6-0.9c0-0.1,0.5-0.1,0.5,0C31.1,40.1,31.1,40.4,31.1,40.8z"/>
            					<path fill="#231f20" class="logo-dots" d="M29.2,39.5c-0.3,0.2-0.5,0.3-0.5,0.3c-0.2-0.1-0.3-0.3-0.5-0.4c0.1-0.1,0.3-0.3,0.4-0.3C28.6,39.1,28.8,39.3,29.2,39.5z"/>
            					<path fill="#231f20" class="logo-dots" d="M14.7,41c-0.1,0.1-0.3,0.3-0.4,0.2c-0.2,0-0.3-0.2-0.4-0.3c0.1-0.1,0.3-0.3,0.5-0.4c0.1,0,0.3,0.1,0.5,0.2
            					C14.8,40.8,14.7,40.9,14.7,41z"/>
            					<path fill="#231f20" class="logo-dots" d="M59.1,52.6c-0.2-0.3-0.5-0.6-0.5-0.7c0.1-0.2,0.3-0.5,0.5-0.5c0.1,0,0.5,0.3,0.5,0.5C59.6,52,59.3,52.2,59.1,52.6z"/>
            					<path fill="#231f20" class="logo-dots" d="M57.4,50.9c-0.1,0.2-0.1,0.4-0.2,0.6c0,0-0.3,0-0.3-0.1c-0.1-0.1-0.2-0.4-0.1-0.4c0.1-0.1,0.4-0.2,0.5-0.2
            					C57.3,50.8,57.3,50.9,57.4,50.9z"/>
            					<path fill="#231f20" class="logo-dots" d="M55.9,57.4c-0.2,0.1-0.3,0.2-0.4,0.2c-0.1-0.1-0.3-0.3-0.4-0.5c0,0,0.2-0.2,0.2-0.2C55.6,57,55.7,57.2,55.9,57.4z"/>
            					<path fill="#231f20" class="logo-dots" d="M35.4,54.2c-0.3,0.2-0.4,0.4-0.6,0.5c-0.1-0.1-0.3-0.3-0.2-0.4c0.1-0.2,0.2-0.3,0.4-0.4C35,53.9,35.2,54.1,35.4,54.2z"/>
            					<path fill="#231f20" class="logo-dots" d="M45.6,53.6c-0.2,0.1-0.3,0.3-0.5,0.3c-0.1,0-0.3-0.2-0.4-0.3c0-0.1,0.1-0.1,0.1-0.2c0.2,0,0.5,0,0.7,0
            					C45.5,53.5,45.6,53.5,45.6,53.6z"/>
            					<path fill="#231f20" class="logo-dots" d="M79.5,52.4c-0.2-0.1-0.3-0.3-0.5-0.4c0.1-0.1,0.2-0.2,0.4-0.3c0.1,0.2,0.2,0.3,0.4,0.5C79.7,52.3,79.6,52.3,79.5,52.4z"/>
            					<path fill="#231f20" class="logo-dots" d="M73.4,52.7c0.1-0.2,0.2-0.4,0.3-0.6c0,0,0.2,0.1,0.3,0.1c-0.1,0.2-0.2,0.4-0.3,0.6C73.6,52.8,73.5,52.8,73.4,52.7z"/>
            					<path fill="#231f20" class="logo-dots" d="M19.9,52.1c-0.2-0.3-0.4-0.5-0.5-0.7c0.2-0.1,0.3-0.3,0.5-0.3c0.2,0,0.3,0.2,0.4,0.4C20.3,51.7,20.1,51.8,19.9,52.1z"/>
            					<path fill="#231f20" class="logo-dots" d="M20.5,53.1c-0.2-0.1-0.4-0.3-0.7-0.4c0-0.1,0-0.1,0-0.2c0.2,0,0.4-0.1,0.5,0c0.1,0.1,0.1,0.3,0.2,0.5
            					C20.6,53.1,20.5,53.1,20.5,53.1z"/>
            					<path fill="#231f20" class="logo-dots" d="M50.5,58.1c0.2,0.3,0.5,0.4,0.5,0.5c0,0.4-0.3,0.7-0.7,0.6c-0.1,0-0.4-0.3-0.4-0.4C50.1,58.6,50.3,58.4,50.5,58.1z"/>
            					<path fill="#231f20" class="logo-dots" d="M51.1,53c0.2,0.2,0.5,0.4,0.7,0.6c-0.1,0.1-0.2,0.3-0.3,0.3C51.1,53.8,50.9,53.6,51.1,53z"/>
            					<path fill="#231f20" class="logo-dots" d="M50,56c0.4,0,0.6,0,1.1,0c-0.2,0.2-0.3,0.5-0.4,0.5C50.4,56.5,50.1,56.5,50,56z"/>
            				</g>
            			</defs>
            			<use xlink:href="#the-night-thief" transform="translate(0 0)"/>
            			<use xlink:href="#black-dots" transform="translate(0 0)"/>
            		</svg>