<svg class="logo" xmlns="http://www.w3.org/2000/svg" viewBox="0 0 60 52.9" enable-background="new 0 0 60 52.9"><path d="M.3 50.1h59.4c.1 0 .2.2.2.4v1.9c0 .2-.1.4-.2.4-3.3 0-40.9.4-59.6-.7-.2 0-.1-1.1 0-1.7 0-.2.1-.3.2-.3zM.3 47.6h59.4c.1 0 .2.1.2.2v1c0 .1-.1.2-.2.2-3.3 0-40.9.2-59.6-.3-.2 0-.1-.6 0-.9 0-.1.1-.2.2-.2zM59.7 2.8H.2c-.1 0-.2-.2-.2-.4V.5C0 .3.1.1.2.1c3.3 0 40.9-.4 59.6.7.2 0 .1 1.1 0 1.7.1.2 0 .3-.1.3zM59.7 5.3H.2c-.1 0-.2-.1-.2-.2v-1c0-.1.1-.2.2-.2 3.3 0 40.9-.2 59.6.3.2 0 .1.6 0 .9.1.1 0 .2-.1.2zM2.8 11.3H.7l.5-2h6.5l-.5 2h-2l-1.4 5.1H1.5l1.3-5.1zM8.8 9.3h2.4l-.7 2.5h2.2l.7-2.5h2.4l-1.9 7h-2.4l.7-2.5H9.9l-.7 2.5H6.9l1.9-7zM16.9 9.3h6l-.5 1.9h-3.7l-.2.8h3.4l-.5 1.7H18l-.2.8h3.7l-.5 1.9h-6l1.9-7.1zM4 18.7h3.5L10 24l1.4-5.3h3.7l-3 11.1H8.8l-2.6-5.5-1.5 5.5H1l3-11.1zM17.9 18.7h3.7l-3 11.1h-3.7l3-11.1zM27.7 30c-.7 0-1.4 0-2-.2-.7-.1-1.3-.4-1.8-.8s-1-.8-1.3-1.5c-.4-.6-.6-1.3-.6-2.2-.1-.9.1-1.8.3-2.6s.7-1.6 1.3-2.2c.6-.6 1.3-1.2 2.2-1.6.9-.4 1.9-.6 3-.7.5 0 1 0 1.5.1s.9.2 1.3.3c.4.1.8.3 1.1.5s.6.4.8.6l-2.2 2.5c-.3-.3-.7-.5-1.2-.6s-.9-.2-1.4-.2c-.5 0-1 .1-1.4.3-.4.2-.7.4-1 .8s-.5.7-.6 1.1c-.1.4-.2.8-.1 1.3 0 .3.1.6.2.9.1.2.3.4.5.6s.4.3.7.3c.3.1.5.1.8.1.4 0 .7-.1 1-.2l.3-1.2-1.8.1.4-2.4 5.3-.3-1.2 5.7c-.5.4-1.2.7-1.9.9-.6.4-1.4.6-2.2.6zM35.9 18.7h3.7l-1.1 3.9h3.4l1.1-3.9h3.7l-3 11.1H40l1.1-4h-3.4l-1.1 4h-3.7l3-11.1zM51.2 22h-3.3l.8-3.1H59l-.9 3.1h-3.3l-2.1 8H49l2.2-8zM4.4 36.3H1.2l.8-3.2h10.2l-.8 3.1H8.1l-2.1 8H2.3l2.1-7.9zM14.1 33.1h3.7l-1 3.9h3.4l1.1-3.9H25l-3 11.1h-3.7l1.1-4H16l-1.1 4h-3.7l2.9-11.1zM27.7 33.1h3.7l-3 11.1h-3.7l3-11.1zM34 33h9.4l-.8 3h-5.8l-.3 1.1H42l-.7 2.7h-5.4l-.3 1.2h5.9l-.8 3h-9.5L34 33zM45.9 33.2h9.3l-.9 3.2h-5.6l-.4 1.4h5.2l-.8 2.9h-5.2l-1 3.6h-3.7l3.1-11.1z"/></svg>