<svg xmlns="http://www.w3.org/2000/svg" viewBox="0 0 200 200" enable-background="new 0 0 200 200">
	<defs>
		<style type="text/css">.st0{fill:#BCBDC0;} .st1{fill:#231F20;}</style>
		<path id="text" class="st0" d="M108.2 89.1c-2.7.2-5.2.4-7.8.5-.1-.2-.2-.5-.2-.7-.4-1.5-1-2-2.6-2-1.7 0-3.4.1-5.1.2l-4.5.3h-.1c-1.1-.8-2-.2-3.1.3-1.8.7-2.8 1.5-2.8 3.4 0 2.6.2 5.3.5 7.9.3 2.2 1.5 3.2 3.7 3.1 4-.1 7.9-.4 11.8-.7 2.2-.2 2.9-1.4 2.6-3.9-3.3.2-6.7.4-10.2.6-.1-1.9-.2-3.6-.4-5.4 6.2-.4 12.3-.8 18.5-1.2V81.1h5.3c2.8 0 2.8 0 2.8 2.8v5.8c0 .6 0 1 .8 1h16.7v-9.5h8.2v25.2c0 1.1-.2 1.6-1.4 1.5-2.2-.1-4.4 0-6.7 0V97.8h-17.5v9.1c0 .3-.4.9-.6.9-2.5.1-4.9 0-7.5 0v-3.9c-1.8 2.8-4.6 3.3-7.4 3.5-6.2.5-12.4.9-18.7 1-5.3.1-8.1-2.8-8.5-8-.2-3.1-.5-6.1-.6-9.2-.1-1.2 0-2.4.3-3.6.6-3.1 2.7-5 5.7-5.6 2.3-.5 4.7-.8 7.1-1 3.7-.3 7.4-.5 11.1-.7 1.5-.1 3 0 4.5.2 3.7.5 5.5 2.6 5.9 6.6.2.6.2 1.2.2 2zm60.6 59.1v-4.9H28.6v6.1l140.2-1.2zM61.5 81.1c-2.3 0-4.5.1-6.7 0-1 0-1.4.3-1.4 1.3.1 5.6 0 11.2 0 16.8 0 .4 0 .8-.1 1.5-.5-.5-.7-.8-1-1.1-2.4-3.1-4.9-6.1-7.3-9.2-.4-.5-.9-.9-1.2-1.4-1-1.4-1.7-3.1-3.9-3.1-.2 0-.4-.1-.9-.3.8-.2 1.3-.3 1.9-.5-.9-1.2-1.7-2.3-2.6-3.3-.4-.4-1-.8-1.6-.8-3.5-.1-7 0-10.4-.1-1.1 0-1.3.4-1.3 1.4v24.1c0 .4 0 .8.1 1.3h6.7c1 0 1.4-.3 1.4-1.3v-18c.6.3.9.6 1.2 1l13.8 17.4c.3.4.8.9 1.2.9 4 .1 8.1 0 12.2 0-.1-8.8-.1-17.6-.1-26.6zm83.1-14.6V61h-19.8v-4.4h21v-6h-29.1v26.6h29.7c0-1.7-.1-3.3 0-4.9.1-1.1-.3-1.4-1.4-1.4H124.8v-4.5c6.7.1 13.2.1 19.8.1zm-8.9 55.3c-5.8.1-11.5.1-17.3.2-.4 0-.8 0-1.2-.1-.9-.3-1-.8-.5-1.6.2-.3.4-.9.4-1.3-.2-1.3.4-1.5 1.5-1.5 6.1 0 12.2-.1 18.4-.1.4 0 .9 0 1.2-.1v-5.8h-29.1v26.6h29.8v-6.4h-1.4c-5.5.1-11 .2-16.4.2-1.2 0-2.4-.1-3.7-.1 0-1.3-.1-2.6-.1-3.9 0-.1.1-.1.2-.4h19.7V122c-.6-.2-1.1-.2-1.5-.2zm-65-9c.1-1.3-.4-1.6-1.6-1.5-1.6.1-3.1.1-4.7 0-1.7-.1-2 .5-2 2v23.5c0 .4 0 .8.1 1.3h7.4c.2 0 .7-.6.7-.9.1-1.7 0-3.4 0-5.2v-3.9h17.3c.7 1.5-.7 3.3 1 4.6-1.4 1.7-.5 3.6-.8 5.5h7.5c.2 0 .7-.6.7-.9v-24.8c0-.7-.2-1-1-1h-6.2c-.8 0-1 .3-1 1.1V121H70.6c0-2.9 0-5.6.1-8.2zm17.5-35.2c.2 0 .6-.6.6-.9.1-1.6 0-3.2 0-4.8v-4.3h17.6v10.1c2.3 0 4.6-.1 6.8 0 1.1 0 1.3-.3 1.3-1.4V52.2c0-.4-.1-.8-.1-1.3h-8.1v9.5H89.5c-.2 0-.7-.6-.7-.9-.1-2.2 0-4.4 0-6.6 0-2.3.2-2-2-2h-6.1v26.8c2.5 0 5 0 7.5-.1zm60.1 41.3c-.1-1 .4-1.3 1.3-1.3 3.4.1 6.8 0 10.2 0 .5 0 1.1-.3 1.6-.3 2.2.1 4.4.2 6.7.4v-6.4c-.4 0-.7-.1-1.1-.1h-25.7c-1 0-1.2.3-1.2 1.2v24.5c0 .3 0 .6.1 1.1h7.6c.2 0 .5-.6.5-.9.1-1.4 0-2.7 0-4.1v-4.2h18.8v-6.1h-18.8c0-1.3.1-2.5 0-3.8zm7.1-27.9v15.8c0 .3.4.8.6.8 2.5.1 4.9 0 7.6 0V87.4h11.5v-6.5h-31.2v6.5c.6 0 1.1.1 1.6 0 .3 0 .8-.5.9-.4 1.2 1 2.7.3 4 .4 1.6.1 3.3 0 4.7 0 .4 1 .7 1.7 1 2.5-.3.3-.7.7-.7 1.1zM79.6 50.9H49.4c-.4 0-1 .3-1 .4-.1 2 0 4 0 6.1h10.3c1.1 0 1.4.3 1.3 1.3-.1 5.8 0 11.6 0 17.4v1.4h8.2V57.4h11.5c-.1-2.2-.1-4.3-.1-6.5zm-18.1 67.2v-4.5c.1-1.9 0-2-1.9-2-9.4-.2-18.8-.3-28.2-.5h-1.3v6.7h11.3v20.3h8.1v-20h12zm9.1-10.2c1.1 0 1.4-.3 1.4-1.4V81.2h-8.1v26.7h6.7zm36.1 3.8c0-.1-.4-.4-.6-.4h-6.8c-.2 0-.4.3-.8.5.6.2 1 .3 1.7.6-.7.3-1.1.5-1.4.7V138h8c0-.3.1-.5.1-.7v-23.5c0-.4-.2-.8-.4-1.3-.1-.1.1-.4.2-.8z"/>

		<path id="black-dots" class="st1" d="M68.2 147.3c-.4.3-.6.7-.8.7-.3 0-.7-.4-.7-.5.1-.3.4-.6.6-.9.3.1.5.3.9.7zm-5.4.2c-.5-.1-1-.1-1.4-.1-.1 0-.2.4-.3.5.4 0 .9.1 1.3.1.1 0 .3-.1.4-.1v-.4zm-2.2-58.2c0-.1-1-.1-1.1.1-.3.8 0 1.4 1.3 1.9 0-.8 0-1.4-.2-2zm-5.2-1.5c-.2 0-.5.4-.7.6.4.3.7.7 1.1.9.2.1.5-.2 1.1-.6-.8-.5-1.1-.8-1.5-.9zm-28.3 3.4c-.3-.2-.7-.5-1-.5-.3.1-.6.5-.9.8.3.2.6.6.9.7.2.1.5-.3.8-.5 0-.2.1-.3.2-.5zm92.8 22.9c0-.3-.7-1-1-.9-.5.1-.9.6-1.1 1.1-.1.2.5.7 1 1.4.6-.7 1.1-1.1 1.1-1.6zM115 112c-.4.2-.8.2-1.1.5-.1.1.1.7.3.9.1.2.7.2.7.2.2-.4.3-.9.4-1.3l-.3-.3zm-3.8 12.6s-.5.4-.5.5c.2.3.5.7.8.9.1 0 .4-.2.7-.5-.4-.3-.7-.6-1-.9zm-42.4-6.1c-.3.2-.7.5-.8.9-.1.2.3.5.5.8.4-.3.7-.6 1.3-1.1-.5-.3-.8-.7-1-.6zm21.9-1.1h-1.5c-.1.1-.1.2-.2.3.3.3.6.7.9.7.3 0 .6-.5.9-.7 0 0 0-.1-.1-.3zm70.9-2.5c-.2-.3-.5-.7-.7-1-.3.2-.5.4-.8.6.3.3.7.5 1 .8.2-.1.4-.3.5-.4zm-12.4 1.4c.2-.4.4-.9.6-1.3l-.6-.3c-.2.4-.4.9-.6 1.3.1.1.4.2.6.3zm-110.9-2.7c-.1-.3-.4-.8-.8-.9-.3-.1-.6.3-1 .5.3.4.6.8 1.1 1.5.5-.6.8-.9.7-1.1zm.8 3.1c-.1-.4-.2-.9-.4-1-.3-.2-.7 0-1.1 0 0 .1-.1.3-.1.4.5.3.9.6 1.4.9.1-.2.1-.3.2-.3zm60.8 11.9c-.1.2.5.8.7.8.8.1 1.3-.5 1.4-1.3 0-.3-.5-.6-1-1.1-.4.7-.9 1.1-1.1 1.6zm3.2-10.3c.2 0 .5-.4.7-.6-.5-.4-1-.8-1.5-1.1-.3 1.1 0 1.7.8 1.7zm-1.7 5.4c.3-.1.5-.5.9-1H100c.1 1 .7 1.2 1.4 1z"/>
	</defs>
	<use xlink:href="#text" transform="translate(0 0)"/>
	<use xlink:href="#black-dots" transform="translate(0 0)"/>
</svg>