<svg class="logo" xmlns="http://www.w3.org/2000/svg" viewBox="0 0 232.8 36" enable-background="new 0 0 232.8 36"><path d="M1.2 30.5h229.7c.5 0 .9.4.9.9V35c0 .5-.4.9-.9.9-12.8.1-157.8.8-230.4-1.3-.8 0-.4-2.2-.2-3.4.1-.4.5-.7.9-.7zM1.2 23.6h229.7c.5 0 .9.2.9.4v1.9c0 .2-.4.4-.9.4-12.8 0-157.8.4-230.4-.7-.8 0-.4-1.1-.2-1.7.1-.1.5-.3.9-.3zM7.2 5.6H1.9L3.3.5h16.6l-1.4 5.1h-5.3L9.7 18.5h-6L7.2 5.6zM21.1.5h6l-1.7 6.3h5.5L32.6.5h6l-4.8 18h-6l1.7-6.4H24l-1.7 6.4h-6l4.8-18zM40.6.5h15.3l-1.3 4.9h-9.4l-.5 1.8h8.8l-1.2 4.3h-8.8l-.5 2h9.6l-1.3 4.9H35.8L40.6.5zM64.4.5H70l4.1 8.6L76.4.5h6l-4.8 18h-5.3L68 9.6l-2.4 8.9h-6l4.8-18zM84.4.5h6l-4.8 18h-6l4.8-18zM99.3 18.9c-1.1.1-2.2-.1-3.3-.3-1.1-.3-2.1-.7-2.9-1.3-.9-.6-1.6-1.4-2.1-2.4-.6-1-.9-2.2-.9-3.6-.1-1.5.1-2.9.6-4.2.5-1.3 1.2-2.5 2.2-3.5 1-1 2.2-1.8 3.6-2.5 1.4-.6 3.1-1 4.9-1.1.9 0 1.7 0 2.5.1s1.5.3 2.2.6c.7.2 1.3.5 1.8.9s.9.7 1.3 1l-3.6 4c-.5-.5-1.2-.8-1.9-1.1-.7-.3-1.5-.4-2.3-.3-.9 0-1.6.2-2.3.5-.7.3-1.2.7-1.7 1.2-.4.5-.8 1.1-1 1.7s-.3 1.3-.3 2.1c0 .6.1 1 .3 1.4.2.4.5.7.8 1 .3.3.7.5 1.1.6s.9.2 1.3.1c.6 0 1.1-.1 1.6-.4l.5-2-3 .1.8-3.9 8.6-.4-2.1 9.3c-.9.6-1.9 1.1-3.1 1.5-1 .6-2.3.8-3.6.9zM112.5.5h6l-1.7 6.3h5.5L124 .5h6l-4.8 18h-6l1.7-6.4h-5.5l-1.7 6.4h-6l4.8-18zM135.2 5.6h-5.3l1.4-5.1h16.6l-1.4 5.1h-5.3l-3.5 12.9h-6l3.5-12.9zM158.9 5.6h-5.3L155 .5h16.6l-1.4 5.1h-5.3l-3.5 12.9h-6l3.5-12.9zM172.9.5h6l-1.7 6.3h5.5l1.7-6.3h6l-4.8 18h-6l1.7-6.4h-5.5l-1.7 6.4h-6l4.8-18zM192.4.5h6l-4.8 18h-6l4.8-18zM200.4.5h15.3l-1.3 4.9H205l-.5 1.8h8.8l-1.2 4.3h-8.8l-.5 2h9.6l-1.3 4.9h-15.5L200.4.5zM217.7.5h15.1l-1.4 5.1h-9l-.7 2.4h8.4l-1.3 4.7h-8.4l-1.6 5.9h-6L217.7.5z"/></svg>