<svg class="logo" xmlns="http://www.w3.org/2000/svg" viewBox="0 0 100 20" enable-background="new 0 0 100 20"><path d="M3.8 8.4H1.6l.6-2.2h7.1l-.6 2.2H6.4l-1.5 5.5H2.3l1.5-5.5zm5.5-2.2h2.6l-.7 2.7h2.4l.7-2.7h2.6l-2.1 7.7h-2.6l.7-2.8h-2.4l-.7 2.8H7.3l2-7.7zm7.9-.1h6.6l-.6 2.1h-4L19 9h3.8l-.5 1.9h-3.8l-.2.8h4.1l-.6 2.1h-6.6l2-7.7zm12.1.2h2.4l1.7 3.7 1-3.7H37L34.9 14h-2.3l-1.8-3.8-1 3.8h-2.6l2.1-7.7zm8 0h2.6L37.8 14h-2.6l2.1-7.7zM43 14c-.5 0-.9 0-1.4-.1-.5-.1-.9-.3-1.3-.5-.4-.3-.7-.6-.9-1-.2-.4-.4-.9-.4-1.5s0-1.2.2-1.8c.2-.6.5-1.1.9-1.5s.9-.8 1.5-1.1c.7-.3 1.4-.5 2.2-.5h1s.6.1.9.2c.3.1.5.2.8.4.3.1.5.3.6.4l-1.5 1.7c-.2-.2-.5-.3-.8-.5s-.7-.2-1-.1c-.4 0-.7.1-1 .2-.3.1-.5.3-.7.5s-.3.5-.4.7-.1.6-.1.9c0 .2.1.4.2.6.1.2.2.3.4.4.1.1.3.2.5.2s.4.1.6.1c.3 0 .5-.1.7-.2l.2-.8-1.4.3.3-1.7 3.7-.2-.9 4c-.4.3-.8.5-1.3.6-.5.2-1 .3-1.6.3zm4.8-7.9h2.6l-.7 2.7H52l.7-2.7h2.6l-2.1 7.7h-2.6l.7-2.8H49l-.7 2.8h-2.6l2.1-7.7zm9.3 2.3h-2.3l.6-2.2h7.1L62 8.4h-2.3l-1.5 5.5h-2.6l1.5-5.5zm12 0h-2.3l.6-2.2h7.1l-.6 2.2h-2.3l-1.5 5.5h-2.6l1.6-5.5zm6-2.2h2.6L77 8.9h2.4l.6-2.7h2.6l-2.1 7.7h-2.6l.7-2.8h-2.4l-.7 2.8H73l2.1-7.7zm7.9 0h2.6l-2.1 7.7H81l2-7.7zm3.1 0h6.6l-.6 2.1h-4l-.2.8h3.8l-.5 1.9h-3.8l-.2.8h4.1l-.6 2.1H84l2.1-7.7zm6.7 0h6.4l-.6 2.2h-3.9l-.3 1H98l-.5 2H94l-.7 2.5h-2.6l2.1-7.7zm6.8-3.4H.2c-.2 0-.3-.2-.3-.4V.6c0-.2.1-.3.3-.3 5.1 0 68.2-.4 99.7.6.4 0 .2 1.1.1 1.6-.1.2-.2.3-.4.3zm0 2.1H.2c-.2 0-.3-.1-.3-.2v-.9c0-.1.1-.2.3-.2 5.1 0 68.2-.2 99.7.3.4 0 .2.6.1.8-.1.1-.2.2-.4.2zM.4 17.1h99.3c.2 0 .4.2.4.4v1.7c0 .2-.2.4-.4.4-5.5 0-68.2.4-99.6-.6-.3 0-.2-1-.1-1.6.1-.2.2-.3.4-.3zm0-2h99.3c.2 0 .4.1.4.2v.9c0 .1-.2.2-.4.2-5.5 0-68.2.2-99.6-.3-.3 0-.2-.5-.1-.8.1-.1.2-.2.4-.2z"/></svg>