<svg xmlns="http://www.w3.org/2000/svg" viewBox="0 0 31.8 50" enable-background="new 0 0 31.8 50"><circle fill="#F9FCEA" cx="15.9" cy="2" r="2"/><path fill="#F9FCEA" d="M30.8 25.8l-.9.9c.4 1.4.7 2.9.7 4.4 0 6.9-4.7 12.6-11.1 14.2-.3.1-.7.2-1 .2.1.2.1.4.1.7 0 .2 0 .3-.1.5.4-.1.7-.1 1.1-.2 7-1.7 12.2-7.9 12.2-15.4 0-1.8-.4-3.6-1-5.3zm-12.3-9.1c.3.1.7.1 1 .2 2.2.6 4.2 1.6 5.9 3.1l.8-.8c-1.9-1.7-4.2-2.9-6.7-3.5-.4-.1-.7-.2-1.1-.2.1.2.1.4.1.6.1.2 0 .4 0 .6zm-5.2-1.2c-.4.1-.7.1-1.1.2-2.5.6-4.8 1.8-6.7 3.5l.8.8c1.7-1.5 3.7-2.5 5.9-3.1.3-.1.7-.2 1-.2 0-.2-.1-.4-.1-.6.1-.2.1-.4.2-.6zm0 30.1c-.3-.1-.7-.1-1-.2C5.9 43.8 1.2 38 1.2 31.2c0-1.5.2-3 .7-4.4l-.9-.9c-.7 1.6-1 3.4-1 5.3C0 38.7 5.2 45 12.2 46.6c.3.1.7.2 1.1.2 0-.2-.1-.3-.1-.5s0-.5.1-.7zm17.2-29.5v9.5m.6 0v-9.5l-1.2 1.2v8.3h1.2zm-15.2 5.7l-9.6-9.6-2.4-2.4.8-.8 2.4 2.4 8.7 8.7L27 18.5l.8.8-11.9 12zm-12-13.7l-.8.8L.7 16 15.9.9l15.2 15.2-2.4 2.4-.8-.8 1.5-1.5L15.9 2.6 2.4 16.1l1.5 1.5zm-2.6-1.5v9.5m.6 0v-8.3L.7 16.1v9.5h1.2zm14 10.4l-12-12-2-2v-1.7l2.9 2.9 11.1 11.1 13.5-13.5.5-.5V22l-14 14zM4.8 18.5l-.8-.8 12-12 12 12-1 .8L15.9 7.3 4.8 18.5zm23.9 0l-.8-.8-.9.8.8.8.9-.8zm-23.9 0l-.8-.8-.8.8.8.8.8-.8zm26.3 7.1l-1.2-.5-.5.5-13.5 13.5L1.7 24.9l-1 .7 15.2 15.2 15.2-15.2zm-11.5-9.9c-.2-1.8-1.8-3.3-3.7-3.3s-3.5 1.4-3.7 3.3v.4c0 .3 0 .5.1.8.4 1.7 1.8 2.9 3.6 2.9s3.3-1.2 3.6-2.9c.1-.3.1-.5.1-.8v-.4zm-3.7 3.1c-1.3 0-2.3-.9-2.6-2.1 0-.2-.1-.4-.1-.6 0-.2 0-.4.1-.6.3-1.2 1.3-2 2.6-2s2.3.9 2.6 2c.1.2.1.4.1.6 0 .2 0 .4-.1.6-.3 1.2-1.3 2.1-2.6 2.1zm3.6 26.6c-.4-1.6-1.9-2.8-3.6-2.8s-3.2 1.2-3.6 2.8c-.1.3-.1.6-.1.9v.3c.2 1.9 1.7 3.4 3.7 3.4s3.5-1.5 3.7-3.4v-.3c0-.3-.1-.6-.1-.9zM15.9 49c-1.3 0-2.4-.9-2.6-2.2 0-.2-.1-.3-.1-.5s0-.5.1-.7c.3-1.1 1.3-2 2.6-2s2.3.8 2.6 2c.1.2.1.4.1.7 0 .2 0 .3-.1.5-.2 1.2-1.3 2.2-2.6 2.2z"/></svg>