<svg version="1.1" id="moon" xmlns="http://www.w3.org/2000/svg" xmlns:xlink="http://www.w3.org/1999/xlink" x="0px" y="0px"
	 viewBox="0 0 50 50" style="enable-background:new 0 0 50 50;" xml:space="preserve">
	<defs>
		<g id="moon">
			<circle id="dark-1" fill="#141414;" cx="25" cy="24.7" r="19.8"/>
			<g id="dark-2">
				<path fill="#24222A" d="M29.6,41.4c0.2-0.1,0.5-0.2,0.8-0.3c0.5-0.2,0.9-0.3,1.4-0.4c0.5-0.2,1-0.3,1.5-0.5c0.3-0.2,0.6-0.3,0.9-0.5 c0.3-0.2,0.6-0.4,0.9-0.6c0.5-0.3,1-0.5,1.5-0.9c0.4-0.3,0.7-0.7,1.1-1c0.5-0.4,1-0.9,1.4-1.4c0.6-0.5,1-1.2,1.5-1.8 c0.4-0.5,0.8-1,1.1-1.5c0.4-0.6,0.8-1.3,1.1-1.9c0.4-0.7,1.2-1.1,1.5-1.9c0.3-0.8,0.4-1.7,0.6-2.5c0-0.1-0.2-0.5-0.3-0.6 c-0.1-0.1-0.2-0.1-0.2,0c-0.2,0.2-0.4,0.5-0.5,0.8c-0.3,0.5-0.4,1-0.7,1.4c-0.3,0.4-0.5,0.8-0.7,1.2c-0.4,0.7-0.9,1.4-1.4,2.1 c-0.3,0.4-0.5,0.8-0.9,1.1c-0.2,0.2-0.5,0.4-0.7,0.7c-0.3,0.3-0.6,0.7-0.9,0.9c0,0-0.1,0.1-0.1,0.1c-0.3,0.3-0.7,0.6-1.1,0.9 c-0.2,0.2-0.6,0.2-0.7,0.4c-0.3,0.4-0.7,0.5-1.1,0.7c-0.2,0.1-0.3,0.2-0.4,0.5c-0.1,0.2-0.2,0.2-0.3,0.3c-0.2,0.1-0.4,0.1-0.5,0.2 c-0.2,0.2-0.4,0.4-0.6,0.3c-0.2,0-0.3,0-0.4,0.1c-0.1,0.1-0.2,0.2-0.4,0.2c-0.4,0.1-0.6,0.4-1,0.4c-0.1,0-0.1,0.1-0.2,0.2 c-0.1,0.1-0.2,0.1-0.3,0.1c-0.4,0-0.8,0.1-1.2,0.3c-0.2,0.1-0.5,0.1-0.7,0.1c-0.1,0-0.2,0.1-0.3,0.1c-0.3,0.2-0.7,0.4-1,0.3 c-0.3-0.1-0.7-0.1-1,0c-0.5,0.1-0.9,0.2-1.4,0.2c-0.3,0-0.5-0.1-0.8-0.1c-0.3,0-0.6,0.1-0.9,0.2c-0.1,0-0.2,0.1-0.2,0.1 c-0.5-0.1-0.9-0.4-1.4-0.2c0,0-0.1,0-0.1,0c-0.3-0.1-0.6,0-0.9-0.1c-0.3-0.1-0.6-0.2-0.9-0.1c-0.1,0-0.1-0.1-0.2-0.1 c-0.2-0.1-0.5-0.1-0.7-0.1c-0.1,0-0.3,0-0.4-0.1c-0.5-0.4-1-0.7-1.6-0.8c-0.4-0.1-1-0.1-1.3-0.5c-0.1-0.1-0.1-0.2-0.3-0.2 c-0.4-0.1-0.8-0.1-1.1-0.4c0,0-0.1-0.1-0.2-0.1c-0.4,0-0.7-0.2-1.1-0.4c-0.8-0.4-1.5-0.9-2.1-1.6c0,0-0.1,0-0.2,0 c-0.4-0.2-0.7-0.5-1.1-0.8c-0.5-0.4-0.9-0.9-1.3-1.5C9,32.1,8.9,32,8.8,31.9c-0.2-0.1-0.3-0.4-0.4-0.5c-0.2-0.2-0.4-0.5-0.6-0.7 c-0.1-0.1-0.2-0.3-0.3-0.4c-0.4-0.7-0.9-1.3-1.3-2.1c0-0.1-0.1-0.1-0.1-0.2c-0.3-0.5-0.6-0.9-0.7-1.5c0-0.1,0-0.2-0.1-0.2 c-0.1,0-0.1,0.1-0.2,0.2C5,26.6,4.9,26.8,5,26.9c0.1,0.1,0.2,0.2,0.2,0.3c0.3,0.7,0.5,2.8,0.8,3.5c0.2,0.5,0.3-0.1,0.6,0.3 c0.3,0.4,0.7,0.8,0.9,1.3c0.1,0.3,0.2,0.6,0.4,0.8c0.4,0.4,0.7,0.9,1,1.4c0.4,0.5,0.8,1.1,1.3,1.5c0.4,0.4,0.9,0.7,1.3,1.1 c0.3,0.3,0.5,0.6,0.8,0.8c0.4,0.3,0.8,0.5,1.1,0.8c0.3,0.3,0.6,0.4,0.9,0.6c0.4,0.2,0.8,0.4,1.3,0.6c0.6,0.3,1.1,0.6,1.7,0.8 c0.3,0.1,0.6,0.3,0.9,0.4c0.6,0.2,1.2,0.4,1.8,0.6c0.3,0.1,0.7,0,1,0.1c0.4,0.1,0.8,0.3,1.3,0.3c0.5,0,1.1,0,1.6,0.1 c0.7,0.1,1.4,0.1,2,0c0.6,0,1.2-0.2,1.8-0.3c0.5-0.1,1.1-0.1,1.6-0.4C29.5,41.4,29.5,41.4,29.6,41.4z"/>
			</g>
			<path id="bright-2" fill="#3C3946" d="M29.8,42.7c0.2-0.1,0.5-0.1,0.8-0.2c0.5-0.1,0.9-0.3,1.4-0.5c0.5-0.2,1-0.3,1.4-0.6 c0.3-0.2,0.6-0.3,0.9-0.5c0.3-0.2,0.6-0.4,0.9-0.5c0.5-0.3,1-0.5,1.4-0.9c0.4-0.3,0.7-0.6,1.1-0.9c0.5-0.4,0.9-0.9,1.4-1.3 c0.6-0.5,1-1.1,1.5-1.7c0.4-0.5,0.8-0.9,1.1-1.4c0.4-0.6,0.8-1.2,1.1-1.8c0.4-0.7,0.8-1.4,1-2.1c0.3-0.8,0.5-1.6,0.8-2.3 c0-0.1,0.1-0.6,0-0.6c-0.1-0.1-0.2,0.4-0.3,0.4c-0.2,0.2-0.4,0.5-0.6,0.7c-0.3,0.4-0.3,1-0.6,1.4c-0.3,0.4-0.5,0.7-0.8,1.1 c-0.4,0.7-0.9,1.3-1.3,2c-0.3,0.4-0.5,0.7-0.9,1c-0.2,0.2-0.5,0.4-0.7,0.7c-0.3,0.3-0.5,0.7-0.9,0.9c0,0-0.1,0.1-0.1,0.1 c-0.3,0.3-0.7,0.6-1.1,0.8c-0.2,0.1-0.5,0.3-0.7,0.5c-0.3,0.3-0.7,0.5-1.1,0.6c-0.2,0.1-0.4,0.2-0.4,0.4c-0.1,0.2-0.2,0.2-0.3,0.3 c-0.2,0.1-0.3,0.1-0.5,0.3c-0.2,0.2-0.4,0.3-0.7,0.2c-0.2,0-0.3,0-0.4,0.2c-0.1,0.1-0.2,0.2-0.4,0.2c-0.3,0.1-0.6,0.3-1,0.3 c-0.1,0-0.2,0.1-0.2,0.1c-0.1,0-0.2,0.1-0.3,0.1c-0.4,0-0.8,0.1-1.2,0.2c-0.2,0.1-0.4,0.2-0.7,0.1c-0.1,0-0.2,0.1-0.3,0.1 c-0.3,0.2-0.7,0.3-1,0.2c-0.3-0.1-0.7,0-1,0c-0.5,0.1-0.9,0.1-1.4,0.1c-0.3,0-0.5,0-0.7,0c-0.3,0-0.6,0.1-0.9,0.1 c-0.1,0-0.2,0-0.2,0c-0.5-0.1-0.9-0.3-1.4-0.1c0,0-0.1,0-0.1,0c-0.3-0.1-0.6-0.1-0.8-0.2c-0.3-0.1-0.6-0.2-0.9-0.1 c-0.1,0-0.1,0-0.2,0c-0.2-0.1-0.4-0.1-0.7-0.2c-0.1,0-0.2,0-0.3-0.1c-0.5-0.4-1-0.5-1.6-0.6c-0.4-0.1-0.9-0.2-1.2-0.5 c-0.1-0.1-0.2-0.1-0.3-0.1c-0.4-0.1-0.8-0.2-1.1-0.4c0,0-0.1-0.1-0.2-0.1c-0.4,0-0.7-0.3-1-0.4c-0.8-0.4-1.5-0.8-2.1-1.5 c0,0-0.1-0.1-0.1-0.1c-0.4-0.2-0.7-0.5-1.1-0.8c-0.5-0.4-1-0.8-1.3-1.4c-0.1-0.1-0.2-0.2-0.3-0.3c-0.2-0.1-0.3-0.3-0.4-0.4 c-0.2-0.2-0.3-0.5-0.6-0.7c-0.1-0.1-0.2-0.2-0.3-0.4c-0.4-0.6-0.9-1.3-1.2-2c0-0.1-0.1-0.1-0.1-0.2c-0.3-0.5-0.6-0.9-0.7-1.4 c0-0.1,0-0.1-0.1-0.2c-0.1,0-0.2,0.1-0.2,0.1c-0.1,0.1-0.1,0.3,0,0.4c0.1,0.1,0.1,0.2,0.2,0.3C6,30,6.2,30.7,6.3,31.2 c0.2,0.5,0.5,1.2,0.8,1.7c0.3,0.4,0.6,0.8,0.9,1.3c0.1,0.2,0.2,0.5,0.4,0.7c0.4,0.4,0.7,0.8,1,1.3c0.4,0.5,0.8,1,1.3,1.4 c0.4,0.4,0.8,0.7,1.2,1.1c0.3,0.2,0.6,0.5,0.9,0.7c0.4,0.3,0.8,0.5,1.1,0.8c0.3,0.2,0.6,0.4,0.9,0.5c0.4,0.2,0.8,0.4,1.2,0.6 c0.6,0.3,1.1,0.6,1.7,0.8c0.3,0.1,0.6,0.2,0.9,0.3c0.6,0.2,1.2,0.3,1.8,0.5c0.3,0.1,0.6,0.1,0.9,0.2c0.4,0.1,0.9,0.2,1.3,0.2 c0.5,0,1.1,0.1,1.6,0.1c0.7,0.1,1.3,0.1,2,0c0.6,0,1.2-0.2,1.8-0.2c0.5-0.1,1.1-0.2,1.6-0.4C29.7,42.7,29.7,42.7,29.8,42.7z"/>
			<path id="bright" fill="#FCF8DE" d="M29.5,44.5c-0.1,0-0.2,0-0.2,0c-0.5,0.2-1,0.3-1.5,0.4c-0.6,0.1-1.1,0.2-1.7,0.2 c-0.6,0-1.3,0-1.9,0c-0.5,0-1-0.1-1.5-0.1c-0.4,0-0.8,0-1.2-0.2c-0.3-0.1-0.6-0.1-0.9-0.2c-0.6-0.2-1.1-0.3-1.7-0.5 c-0.3-0.1-0.5-0.2-0.8-0.3c-0.6-0.2-1.1-0.5-1.6-0.7c-0.4-0.2-0.8-0.4-1.2-0.6c-0.3-0.1-0.6-0.3-0.8-0.5c-0.3-0.3-0.7-0.5-1.1-0.7 c-0.3-0.2-0.6-0.4-0.8-0.6c-0.4-0.3-0.8-0.7-1.2-1c-0.5-0.4-0.9-0.8-1.2-1.3c-0.3-0.4-0.6-0.8-1-1.2C9,37,8.9,36.8,8.8,36.5 c-0.2-0.4-0.5-0.8-0.8-1.1c-0.3-0.4-0.4-0.9-0.6-1.3c-0.3-0.7-0.5-1.2-0.8-1.8c0-0.1-0.1-0.3-0.1-0.4c-0.1-0.1-0.3-0.8-0.3-0.9 c0-0.1,0.3,0.4,0.4,0.4c0.1,0,0.1,0.1,0.1,0.1c0.1,0.5,0.4,0.9,0.7,1.3c0,0,0.1,0.1,0.1,0.1c0.3,0.7,0.8,1.2,1.2,1.8 C8.8,34.9,8.9,35,9,35.1c0.2,0.2,0.3,0.5,0.5,0.7c0.1,0.1,0.3,0.3,0.4,0.4c0.1,0.1,0.2,0.2,0.3,0.3c0.3,0.5,0.8,0.9,1.2,1.3 c0.3,0.3,0.6,0.5,1,0.7c0,0,0.1,0,0.1,0.1c0.6,0.6,1.3,1,2,1.4c0.3,0.2,0.6,0.4,1,0.4c0.1,0,0.1,0,0.2,0.1c0.3,0.3,0.7,0.4,1,0.4 c0.1,0,0.2,0,0.3,0.1c0.3,0.4,0.8,0.4,1.2,0.5c0.5,0.1,1.1,0.3,1.5,0.6c0.1,0.1,0.2,0.1,0.3,0.1c0.2,0,0.4,0.1,0.6,0.1 c0.1,0,0.1,0.1,0.2,0c0.3-0.1,0.6,0,0.8,0.1c0.3,0.1,0.5,0.1,0.8,0.1c0,0,0.1,0,0.1,0c0.5-0.2,0.9,0.1,1.3,0.1c0.1,0,0.2,0,0.2,0 c0.3-0.1,0.6-0.1,0.8-0.1c0.2,0,0.5,0,0.7,0c0.5,0,0.9-0.1,1.3-0.1c0.3,0,0.6-0.1,0.9,0c0.3,0.1,0.7,0,1-0.2 c0.1-0.1,0.2-0.1,0.3-0.1c0.2,0.1,0.5,0,0.7-0.1c0.4-0.1,0.7-0.2,1.1-0.2c0.1,0,0.2,0,0.3-0.1c0.1,0,0.1-0.1,0.2-0.1 c0.4,0,0.6-0.2,1-0.3c0.1,0,0.2-0.1,0.3-0.2c0.1-0.1,0.2-0.2,0.4-0.2c0.3,0,0.5-0.1,0.6-0.2c0.1-0.1,0.3-0.2,0.5-0.2 c0.1,0,0.2-0.1,0.3-0.3c0.1-0.2,0.2-0.3,0.4-0.3c0.4-0.1,0.8-0.3,1.1-0.6c0.2-0.2,0.4-0.3,0.6-0.4c0.4-0.2,0.7-0.5,1-0.8 c0,0,0.1-0.1,0.1-0.1c0.4-0.2,0.6-0.5,0.9-0.8c0.2-0.2,0.4-0.4,0.7-0.6c0.3-0.3,0.6-0.6,0.8-0.9c0.4-0.6,0.9-1.2,1.3-1.8 c0.2-0.3,0.5-0.7,0.7-1c0.3-0.4,0.4-0.9,0.6-1.3c0.2-0.3,0.4-0.5,0.6-0.7c0.1-0.1,0.5-0.4,0.5-0.3c0.1,0.1-0.2,0.6-0.2,0.7 c-0.2,0.7-0.5,1.3-0.8,2c-0.3,0.7-0.6,1.3-1,2c-0.3,0.6-0.7,1.1-1,1.7c-0.3,0.5-0.7,0.9-1,1.3c-0.4,0.5-0.9,1.1-1.4,1.5 c-0.4,0.4-0.9,0.8-1.3,1.2c-0.4,0.3-0.7,0.6-1,0.8c-0.4,0.3-0.9,0.6-1.4,0.8c-0.3,0.2-0.6,0.3-0.9,0.5c-0.3,0.2-0.6,0.3-0.9,0.4 c-0.4,0.2-0.9,0.4-1.4,0.5c-0.4,0.2-0.9,0.3-1.3,0.4C30.1,44.4,29.8,44.4,29.5,44.5z"/>
		</g>
	</defs>
	<use xlink:href="#moon" transform="translate(0 0)"/>
</svg>
