<svg version="1.1" xmlns="http://www.w3.org/2000/svg" xmlns:xlink="http://www.w3.org/1999/xlink">
		<defs>
		<symbol id="twitter">
			<path d="M139.3,267.1c-0.2-1.1-0.3-2.2-0.8-3.2c-0.1-0.2-0.2-0.4-0.3-0.5c-0.9-0.6-1.3-1.5-2-2.3
			c-0.1-0.2-0.3-0.4-0.4-0.6c-0.5-0.6-1.1-1.3-1.7-1.8c-0.4-0.3-0.8-0.6-1-1c-0.2-0.3-0.4-0.5-0.7-0.8c-1-0.9-2.2-1.6-3.4-2.3
			c-0.8-0.4-0.8-0.7-0.2-1.2c0.6-0.6,1-1.3,1.5-2c0.5-0.7,0.8-1.6,0.8-2.4c-0.1-1.7-0.5-3.3-1.4-4.7c-0.7-1.1-1.5-2.3-2.5-3.2
			c-0.8-0.7-1.7-1.1-2.6-1.1c-1.3,0-2.7,0.1-3.7,1c-1,0.8-2.3,1.3-3.2,2.2c-0.6,0.6-0.8,0.6-1.4-0.1c-0.1-0.1-0.2-0.2-0.3-0.3
			c-0.4-0.7-1.1-0.9-1.7-0.9c-0.7,0-1.4,0-2.2,0.1c-0.7,0.2-1.5,0.3-2.2,0.2c-1.6-0.1-3.2,0.1-4.8,0.1c-0.8,0-1.3-0.2-1.8-0.7
			c-0.3-0.3-0.5-0.4-0.9-0.4c-0.5,0-1-0.1-1.4-0.2c-0.7-0.1-1.2,0-1.6,0.7c-0.3,0.5-0.7,0.7-1.3,0.6c-0.6-0.1-1.2-0.1-1.7,0.1
			c-0.9,0.3-1.9,0.5-2.8,0.7c-1.5,0.4-3,0.6-4.4-0.3c-0.4-0.2-0.7-0.1-1.1-0.1c-1.3,0.2-2.6,0.2-3.8-0.5c-0.6-0.3-1.2-0.7-1.9-0.8
			c-0.9-0.1-1.8-0.1-2.7,0.2c-1.7,0.5-3.4,0.7-5.1,0.6c-1.6-0.1-3.3,0.1-4.9-0.1c-0.1,0-0.2,0-0.3,0c-1.1,0.3-2.2-0.2-3.4-0.3
			c-0.6,0-1.2-0.1-1.7,0.3c-0.2,0.2-0.5,0.2-0.8,0.3c-0.7,0.3-1.6,2.2-1.4,2.9c0,0.1,0.1,0.1,0.1,0.2c0.1,0.1,0.2,0.2,0.1,0.3
			c-0.1,0.1-0.3,0.1-0.4,0c-0.5-0.3-1.1-0.5-1.5-0.9c-0.5-0.5-1-1-1.6-1.3c-1.1-0.5-2.3-0.4-3.4,0.3c-0.7,0.5-1.3,0.8-2,0.2
			c-0.3-0.3-0.8-0.4-1.2-0.5c-1.1-0.3-2.1-0.2-2.6,0.9c-0.7,1.4-1.1,2.8-0.7,4.4c0.2,0.7,0.2,1.4,0.2,2c0,0.2,0,0.5,0.1,0.7
			c0.6,1.6,0.4,3.2,0.2,4.8c-0.1,0.3-0.1,0.9-0.6,0.9c-0.5,0-0.5-0.5-0.6-0.9c-0.2-1.1-0.6-2.1-1-3.2c-0.4-1.2-0.9-2.4-1.4-3.5
			c-0.7-1.6-1.9-2.6-3.2-3.5c-0.7-0.5-1.3-0.4-1.9,0.3c-0.9,1-1.4,2.2-1.3,3.6c0,0.9,0.3,1.9,0,2.8c-0.1,0.5-0.3,0.9-0.3,1.4
			c-0.1,0.6-0.2,1.2-0.4,1.8c-0.1,0.2-0.1,0.5-0.4,0.5c-0.3,0-0.3-0.3-0.4-0.5c-0.4-0.7-0.4-1.4-0.6-2.2c-0.2-1.2-0.8-2.2-1-3.4
			c-0.2-0.8-0.4-1.5-0.8-2.2c-0.2-0.4-0.4-0.9-0.6-1.3c-0.1-0.2-0.2-0.4-0.1-0.7c0.3-0.9-0.2-1.8,0.2-2.7c0-0.1-0.1-0.3-0.2-0.4
			c-0.4-0.3-0.4-0.8-0.7-1.1c-0.7-1-1.4-2.1-2.9-2c-0.1,0-0.2,0-0.3-0.1c-0.7-0.3-1.4-0.2-2,0.1c-1.7,0.6-3.4,0.8-5.2,1
			c-2.1,0.2-4.2,0.3-6.3,0.5c-1.3,0.1-2.6,0.2-3.8-0.1c-1-0.2-2,0.1-3,0c-0.1,0-0.3,0.1-0.5,0.2c-0.9,0.6-1.9,1-3,1.1
			c-0.7,0.1-1.4,0.3-1.7,1c-0.7,1.9-0.9,3.5,0.6,5.2c0.7,0.7,1.6,1.3,2.7,1c0.8-0.2,1.6-0.1,2.4-0.4c0.3-0.1,0.7-0.1,1,0
			c0.3,0.1,0.6,0.2,0.9,0.1c1-0.4,1.9,0,2.8,0.4c0.7,0.3,1.5,0.9,1.5,1.7c0.1,0.8,0.3,1.7,0.3,2.6c-0.1,1.5,0.3,3,0.5,4.5
			c0.3,1.8,0.6,3.6,0.6,5.4c0,0.7,0,1.3,0.1,2c0.2,1.6,0.5,3.2,2.4,3.9c0.1,0,0.1,0.1,0.2,0.1c1,0.6,2.6,0.3,3.2-0.6
			c0.7-1.1,1.1-2.4,0.7-3.7c-0.3-1.1-0.3-2.3-0.7-3.4c-0.6-2.2-0.9-4.4-1.2-6.7c0-0.3-0.1-0.7,0-1c0.2-0.6,0.2-1.1,0.1-1.6
			c-0.2-1-0.2-2.1,0.1-3.1c0.1-0.3,0.1-0.6,0.1-0.9c0-0.4,0.2-0.7,0.5-1c0.9-0.7,3.4-0.6,4.3,0.2c0.1,0.1,0.2,0.1,0.2,0.2
			c0.5,0.9,1.4,1.5,1.4,2.7c0,0.2,0.2,0.4,0.3,0.5c1.2,2.2,1.9,4.5,2.4,6.9c0.3,1.4,1,2.6,1.2,4c0,0.3,0.3,0.6,0.5,0.9
			c0.1,0.2,0.3,0.3,0.3,0.5c0.2,1.1,1,1.8,1.8,2.5c1.4,1.1,3.2,0.9,4.2-0.5c0.8-1.2,1.6-2.3,2.1-3.6c0.1-0.4,0.3-0.7,0.5-1
			c0.2-0.4,0.5-0.4,0.7-0.1c0.1,0.1,0.3,0.3,0.4,0.5c1.3,1.4,2.5,2.9,4.3,3.8c0.9,0.5,1.8,0.6,2.8,0.6c0.4,0,0.7-0.2,0.9-0.5
			c0.8-1.3,1.5-2.6,1.8-4.1c0.5-2.4,0.8-4.9,0.6-7.4c0-0.7-0.1-1.4-0.1-2.1c0-0.2,0-0.5,0.3-0.6c0.3,0,0.4,0.2,0.4,0.5
			c0.1,1,0.3,2,0.4,3.1c0.2,2.2,0.1,4.5,0.1,6.7c0,0.8,0,1.5,0.2,2.3c0.2,0.8,0.3,1.8,1.4,2.1c0.2,0,0.3,0.3,0.4,0.4
			c0.1,0.2,0.3,0.3,0.5,0.4c1.2,0.2,2.4,1,3.6-0.1c0,0,0.1,0,0.2,0c0.8-0.3,1.4-1,1.4-1.9c0-1.1-0.1-2.1-0.5-3.2
			c-0.4-0.9-0.7-1.9-0.9-2.9c-0.1-1.2-0.5-2.3-0.4-3.5c0.2-2-0.7-4,0.6-5.9c0.1-0.2-0.1-0.5,0.2-0.6c0.3-0.1,0.5,0.1,0.8,0.2
			c0.2,0.1,0.3,0.1,0.5,0.2c0.6,0.4,1.2,0.6,1.9,0.4c0.4-0.1,0.9-0.1,1.2,0.1c0.4,0.4,0.6,0.3,1,0c0.3-0.3,0.8-0.7,1.3-0.4
			c0.6,0.4,1.2,0.5,1.3,1.5c0,1.7-0.1,3.4-0.1,5.2c0,0.4-0.3,0.8-0.2,1.3c0.3,1.3,0.2,2.7,0.1,4c0,0.5-0.1,1.1-0.1,1.6
			c-0.1,1.6,0.8,2.7,1.7,3.9c0.7,0.9,1.7,1.2,2.8,1.1c1.5-0.2,2.6-1.2,2.3-2.9c-0.2-1.1-0.4-2.2-0.6-3.2c-0.2-1.1-0.5-2.3-0.6-3.5
			c-0.2-3,0.6-5.9,0.8-8.8c0-0.8,0.6-1.1,1.4-1c0.8,0.1,1.5,0.4,2.1,0.7c1.3,0.6,2.5,1.1,3.9,0.3c0.6-0.3,1.2,0.1,1.3,0.8
			c0.1,3.2-0.3,6.3-1.2,9.4c-0.4,1.5-0.4,2.9,0.6,4.2c0.2,0.2,0.4,0.6,0.4,0.8c0,0.8,0.6,1.2,1.2,1.4c0.6,0.3,1.2,0.5,1.9,0.6
			c0.8,0.1,1.5-0.1,2-0.6c0.6-0.7,0.9-1.4,0.7-2.4c-0.5-2.4-0.2-4.8-0.2-7.2c0-0.2,0.1-0.5,0-0.7c-0.2-1.8,0.1-3.5,0.4-5.2
			c0.2-1.3,0.7-1.3,1.7-1.4c0.3,0,0.6,0,0.8,0c0.8,0.1,1.5,0.1,2.3,0c1.1-0.2,2.3,1,2.2,2.1c-0.1,1.4-0.2,2.9,0.1,4.3
			c0.5,2.3,0.7,4.6,1.3,6.8c0.2,0.8,0.3,1.6,0.9,2.2c0.4,0.4,0.7,0.8,0.9,1.2c0.9,1.3,2.1,2.2,3.8,2c0.3,0,0.6,0,0.9,0.1
			c1,0.4,2,0.2,3,0.1c1.3-0.1,2.5-0.5,3.7-1c1.5-0.6,2-1.3,1.8-3.2c-0.1-1.3-0.8-2.4-1.4-3.5c-0.4-0.7-1.1-1-1.7-0.7
			c-0.7,0.4-1.6,0.4-2.3,0.9c-0.8,0.6-1.8,0.6-2.8,0.6c-0.7,0-1.2-0.7-1.1-1.4c0.1-0.8,1-1.6,1.8-1.6c1,0,2-0.1,3-0.1
			c0.8,0,1.6-0.2,2.4-0.3c0.2,0,0.3-0.1,0.5-0.2c0.8-0.9,1.7-1.8,1.3-3.3c-0.1-0.3-0.1-0.5-0.1-0.8c-0.1-0.4-0.3-0.8-0.5-1.1
			c-0.6-0.7-1.4-0.6-2.2-0.5c-0.6,0.1-1.2,0.1-1.7,0c-1-0.2-2.1-0.1-3.1,0c-0.4,0-0.9,0.2-1.3,0c-0.4-0.2,0-0.7-0.2-1c0,0,0-0.1,0-0.1
			c-0.1-0.3-0.2-0.7-0.2-1c0-0.4,0.6-0.2,0.8-0.4c0.1-0.1,0.2-0.1,0.2-0.2c0.6-1.1,1.7-1.1,2.8-1.2c0.7,0,1.4,0,2.1,0
			c1.3-0.1,2.7,0,4,0.3c0.6,0.2,1.1,0.4,1.4,1c0.3,0.5,0.9,1,0.5,1.8c-0.1,0.1,0,0.3,0,0.4c0.4,1,0.1,2.1,0.2,3.1
			c0.1,0.5,0.4,1.1,0.2,1.6c-0.4,1.1-0.3,2.3-0.2,3.4c0,1,0,1.9-0.6,2.7c-0.2,0.4-0.2,0.8-0.2,1.3c0.1,1-0.1,2,0.5,3c0,0,0,0.1,0,0.1
			c-0.1,0.4,0.2,0.6,0.4,0.9c0.5,0.9,1.4,1.3,2.2,1.7c1.3,0.8,3-0.1,3.3-1.6c0.2-1,0.1-1.9,0-2.9c-0.1-1.1-0.3-2.3-0.3-3.4
			c0-0.5,0.1-0.8,0.6-1c0.5-0.2,0.9-0.5,1.3-0.8c0.5-0.4,1.1-0.5,1.6-0.1c0.3,0.2,0.6,0.3,1,0.3c0.7,0.1,1.3,0.4,1.9,0.7
			c0.9,0.5,1.6,1.2,2.3,1.9c0.6,0.5,0.8,1.1,0.8,1.8c0,0.4,0,0.8,0,1.2c0,0.7,0.2,1.3,0.8,1.7c0.4,0.3,0.7,0.6,0.9,1
			c0.3,0.5,0.6,1,1.2,1c0.5,0.1,1,0.3,1.5,0.4c1.3,0.4,2.3,0,3-1.2C139.3,268.3,139.4,267.7,139.3,267.1z M62.6,248.4
			c-0.1,0.2-0.4,0.2-0.4,0c-0.1-0.4-0.5-0.7-0.6-1.1c-0.1-0.3,0-0.6,0.3-0.7c0.3-0.1,0.5,0,0.6,0.3c0.1,0.3,0.4,0.5,0.4,0.9
			C62.8,248,62.7,248.2,62.6,248.4z M123.4,251.2c-1-0.1-1.9-0.4-2.7-1c-0.5-0.4-0.7-1-0.5-1.6c0.2-0.6,3.9-2.4,4.7-2.2
			c0.7,0.1,1.1,0.5,1.2,1.2C126.4,249,124.8,251.2,123.4,251.2z"/>
		</symbol>
		<symbol id="audio">
			<path d="M80.8,55.4c-0.8-1.8-2-3.1-3.8-3.9c-1-0.5-2.1-0.7-3.2-1.2c-1-0.4-2.8,0.3-3.2,1.2c-0.3,0.5-0.7,0.9-1,1.3
			c-0.7,0.7-1.6,1.4-2.1,2.3c-0.6,1-1.4,1.7-2.2,2.4c-0.3,0.3-0.6,0.2-0.6-0.2c0-1.1-0.1-2.1,0-3.2c0.1-1.2-0.2-2.4-0.6-3.6
			c-0.3-1.2-1.5-1.7-2.5-2.2c-0.6-0.3-1.2-0.1-1.7,0.3c-1.1,0.8-1.5,1.9-1.3,3.2c0.1,0.6,0.2,1.2,0.2,1.7c0,0.3,0,0.6-0.3,0.7
			c-0.3,0.1-0.5-0.1-0.7-0.4c-0.2-0.2-0.3-0.5-0.5-0.7c-0.8-0.8-1.3-1.9-2.4-2.4c-1.3-0.6-2.5-1.5-3.9-2c-1.5-0.5-3.1-1.1-4.7-1
			c-0.9,0-1.8-0.2-2.6-0.6c-0.7-0.3-1.4-0.4-2.1-0.4c-1.1,0-1.4,0.2-1.7,1.3c-0.2,0.7-0.5,1.3-0.7,1.9c-0.2,0.4-0.4,0.5-0.8,0.2
			c-0.2-0.2-0.5-0.4-0.8-0.5C36,49,33.9,49,33.2,51.4c-0.1,0.3-0.1,0.5-0.1,0.8c0.1,0.7,0.2,1.4,0.1,2.1c0,0.6,0.1,1.1,0.4,1.6
			c0.4,0.7,0.6,1.5,0.5,2.3c-0.1,1.2-0.3,2.3-0.5,3.5c-0.1,0.6-0.4,1.2-0.8,1.6c-0.6,0.7-1.3,0.6-1.6-0.3c-0.3-0.6-0.6-1.2-1-1.8
			c-0.3-0.5-0.5-1-0.5-1.6c-0.1-2.2,0.4-4.2,1.5-6c0.6-1,0.7-2.1,0.7-3.3c0-0.6-0.3-1.3-0.2-1.9c0-0.3-0.1-0.6-0.4-0.8
			c-0.8-0.8-1.9-1.1-2.9-1.5c-0.2-0.1-0.5,0-0.7,0.1c-1.3,0.5-1.9,1.5-1.9,3c0,0.6-0.1,1.1-0.2,1.6c-0.3,1.4-0.9,2.8-1.1,4.2
			c0,0.1,0,0.2-0.1,0.3c-0.1,0.2-0.2,0.5-0.5,0.5c-0.3,0-0.4-0.3-0.4-0.5c0-0.4,0-0.8-0.1-1.1c-0.6-1.8-0.9-3.7-1.4-5.6
			c-0.1-0.3-0.2-0.7-0.5-0.9c-0.5-0.5-0.8-1.1-1-1.7c-0.4-1-1.3-1.5-2.2-2c-0.3-0.2-0.7-0.1-1,0c-0.3,0.1-0.5,0.2-0.8,0.2
			c-0.9,0.2-1.4,0.7-1.4,1.7c-0.1,0.8-0.4,1.5-0.8,2.2c-0.5,1-1,1.9-1.4,2.9c-0.9,2-2.1,3.8-3.1,5.7c-0.6,1.1-1.2,2.2-1.9,3.3
			C7.5,60.9,7,61.8,6,62.4c-1,0.6-1.4,1.7-1.3,2.6c0.1,1.2,0.6,2.3,1.1,3.4c0.3,0.7,1,1.2,1.6,1.7c0.9,0.9,2.1,0.9,3.1,0
			c0.9-0.8,1.3-1.9,1.5-3.1c0.1-0.4,0.3-0.8,0.6-1c0.3-0.2,2.5-1.1,2.9-1.1c0.1,0,0.3,0,0.4,0c0.8,0.3,1.7,0.2,2.6,0.3
			c0.8,0.1,0.9,0.2,1.1,1c0.3,1.3,0.7,2.5,1.5,3.6c0.6,0.8,1.1,1.5,2,2c0.4,0.2,0.5,0.9,1.1,0.8c0.5-0.1,0.9-0.3,1.4-0.4
			c1.1-0.3,1.9-0.9,1.8-2.2c0-0.1,0-0.2,0.1-0.3c0.1-0.2,0.1-0.4,0.4-0.5c0.2,0,0.4,0.1,0.5,0.2c0.4,0.7,1,1.1,1.6,1.6
			c1.1,0.9,3,1,4.3,0.3c0.5-0.3,0.9-0.8,1.4-1.2c1.8-1.3,2.3-1.4,3,0.8c0.5,1.7,1.8,2.2,3,3c0.1,0.1,0.3,0.1,0.4,0.1
			c0.8,0,1.5-0.2,2.1-0.7c1.1-0.8,2-1.8,3.2-2.4c0.1,0,0.1-0.1,0.2-0.1c1.2-1.4,2.9-2.2,4.3-3.4c1.4-1.1,2.8-2.1,4-3.4
			c0.9-0.9,2-1.6,2.5-2.8c0.1-0.1,0.2-0.2,0.3-0.2c0.2,0.1,0.2,0.2,0.2,0.4c0.1,1,0.1,2,0,3.1c0,0.6,0,1.2,0,1.9
			c0,0.5,0.1,0.9,0.4,1.3c0.4,0.6,0.9,1,1.5,1.3c0.5,0.2,0.7,0.5,1,0.9c0.5,0.7,1.1,1.2,2,1.3c0.4,0,0.8-0.1,1.1-0.2
			c1.2-0.5,2.3-0.3,3.4,0.6c0.9,0.8,2,1.3,3.1,1.6c0.3,0.1,0.7,0.2,1,0.1c1.8-0.2,3.2-1.1,4.6-2.2c1.4-1.2,2.3-2.9,3.5-4.2
			c0.2-0.2,0.3-0.5,0.4-0.7c0.5-1.7,1.1-3.4,1.1-5.2C81.8,59,81.6,57.2,80.8,55.4z M20.7,60c-0.2,1.3-1.3,1.8-3.8,1.8
			c-0.1,0-0.5,0-0.9-0.1c-2.7-0.4-3-1-1.8-3.5c0.8-1.8,2.4-3,3.3-4.6c0.6-1.1,1.8-1,2.3,0.2C20.7,55.8,21,57.9,20.7,60z M53.3,57.6
			c-0.3,0.9-1.1,1.5-1.6,2.2c-0.9,1.2-2.3,1.9-3.4,2.9c-1,0.9-2.3,1.4-3.6,1.8c-0.5,0.1-0.6-0.1-0.7-0.5c-0.1-0.7-0.1-1.4,0-2.1
			c-0.1-0.8,0.1-1.6-0.2-2.4c-0.1-0.1-0.1-0.3,0-0.4c0.3-1.2,0.2-2.5,0.6-3.8c0.5-1.2,1.1-1.8,2.5-1.6c1.1,0.1,2.2,0.4,3.2,0.6
			c0.2,0,0.5,0.1,0.7,0.3c0.6,0.6,1.3,0.9,2,1.3C53.4,56.5,53.5,56.9,53.3,57.6z M77.7,59.5c-0.2,1.1-0.5,2.3-1.1,3.3
			c-0.3,0.5-0.6,0.9-0.8,1.4c-0.9,1.9-2.6,2.8-4.4,3.6c-0.7,0.3-1.3,0.2-1.7-0.5c-0.2-0.3-0.5-0.6-0.8-1c-0.3-0.4-0.6-0.9-0.2-1.5
			c0.3-0.4,0.2-1,0-1.4c-0.3-0.7-0.2-1.2,0.2-1.7c0.4-0.5,0.7-1.1,1-1.8c0.7-1.5,1.9-2,3.7-2.1c0,0,0.2,0,0.4,0.1
			c0.9,0.5,1.8,0.9,2.9,0.4C77.4,58.1,77.9,58.7,77.7,59.5z"/>
		</symbol>
		<symbol id="blog">
			<path d="M68.4,14.6c-0.1-0.2-0.3-0.2-0.5-0.3c-1.8-0.3-3.6-0.4-5.4-0.2c-0.5,0.1-1.1,0.2-1.6,0.1c-1.3-0.1-2.3,0.4-3.3,1
			c-1.2,0.7-1.4,1.6-0.9,2.9c0.4,0.9,1.3,1.4,1.9,2c0.3,0.3,0.8,0.5,0.5,1c-0.2,0.5-0.7,0.5-1.1,0.5c-0.4,0-0.6,0-0.8,0
			c-0.8,0-1.5-0.6-1.7-1.4c-0.1-0.2-0.2-0.4-0.2-0.6c-0.3-0.9-0.7-1.8-0.4-2.9c0.3-1.3,0.7-2.5,0.6-3.9c0-0.5,0.1-1,0.5-1.5
			c0.3-0.4,0.6-0.8,0.8-1.2c0.7-1.3,2-1.5,3.2-1.7c0.1,0,0.4,0.1,0.5,0.2c0.6,0.5,1.3,0.5,2,0.4c0.7,0,1.2-0.4,1.6-1
			c0.2-0.5,0.1-3.1-0.2-3.5c-0.5-0.6-1-1.3-1.7-1.8c-0.5-0.4-1.1-0.6-1.7-0.6c-1.3,0-2.4,0.4-3.5,0.9c-0.8,0.3-1.7,0.4-2.3,1.1
			c-0.4,0.4-0.8,0.7-1.3,1c-0.4,0.3-0.7,0.6-1.1,1C51.5,7,51.1,8.1,50.6,9c-0.3,0.5-0.5,0.6-0.9,0.1c-0.1-0.1-0.3-0.3-0.3-0.5
			c-0.2-1-0.9-1.7-1.5-2.4c-1.8-1.9-3.9-2-5.8-0.1c-0.9,0.8-1.4,2-2.1,2.9c-1.2,1.6-2,3.4-3,5.1c-0.3,0.5-0.3,1.2-0.7,1.7
			c-0.7,1.2-1.1,2.5-1.6,3.8c-0.2,0.4-0.3,0.8-0.2,1.2c0,0.5-0.2,1-0.5,1.4c-0.8,1-1.7,1.9-3.1,2c-2,0.2-2.3-0.2-2.1-2
			c0.1-1.1,0.2-2.2,0.3-3.3c0.1-1.4,0.6-2.8,0.5-4.2c0.7-1.3,0.3-2.8,0.9-4.1c0-0.1,0-0.2,0-0.3c-0.4-1-0.4-2.1-1.1-3.1
			c-0.7-0.9-1.4-1.5-2.5-1.3c-0.9,0.2-2.1,0.2-2.5,1.4c-0.1,0.3-0.3,0.6-0.6,0.6c-0.4,0-0.4-0.4-0.5-0.7c0-0.1-0.1-0.1-0.1-0.2
			c-0.3-0.9-1.1-1.5-1.5-2.3c-0.3-0.6-1.1-0.6-1.7-0.9c-1.7-0.7-3.5-0.8-5.2-0.1c-2.1,0.8-4.1,1.8-5.7,3.4c-1,1-1.8,2.2-1.8,3.7
			c0,1,0,2.1-0.2,3.1c-0.2,1.3-0.3,2.7-0.6,4c-0.4,1.9-0.5,3.9-0.7,5.8c-0.1,0.7-0.2,1.3-0.5,1.9c-0.4,0.7-0.5,1.5-0.4,2.3
			c0.2,1.8,1.4,3.3,2.3,4.8C7,32.9,7.1,33,7.2,33.1C8.1,33.6,9,34,10,34c1,0,1.9,0,2.9,0c1.1,0,2.1-0.2,2.9-1.1
			c0.1-0.1,0.3-0.3,0.5-0.4c1-0.8,2.1-1.5,3.1-2.4c0.7-0.6,1.5-1.3,1.7-2.3c0-0.2,0.2-0.3,0.3-0.4c0.2-0.1,0.5-0.2,0.5,0.1
			c0.1,0.8,0.9,1.2,0.9,2c0,0.2,0.1,0.3,0.2,0.5c1,1,1.8,2.1,3.4,2.3c0.7,0.1,1.3,0.1,1.7-0.5c0.2-0.3,0.5-0.6,0.9-0.7
			c1.3-0.4,2.6-0.7,4-0.7c1.4,0,2.7-0.2,4.1-0.3c1-0.1,1.8,0,2.7,0.5c0.9,0.6,2,0.9,3.1,1c1.4,0.1,2.7-0.5,3.9-1.1
			c1.2-0.5,2-1.5,2.5-2.7c0.3-0.7,0.7-1.4,1-2c0.4-0.7,0.6-0.7,1.3-0.3c0.9,0.6,1.8,1.2,2.8,1.8c0.7,0.4,1,0.9,0.8,1.8
			c-0.1,0.4-0.1,0.8-0.2,1.2c-0.5,1.6,0,3,0.5,4.5c0,0.1,0.2,0.2,0.3,0.3c0.7,0.4,1.2,1,1.7,1.6c0.2,0.2,0.4,0.5,0.7,0.4
			c0.8-0.1,1.7-0.1,2.2-0.9c0.1-0.2,0.3-0.4,0.4-0.6c0.4-0.3,0.5-0.8,0.5-1.3c-0.1-1.6,0.5-3.1,1-4.6c0.1-0.3,0.3-0.5,0.5-0.7
			c0.9-0.8,1.7-1.7,2.1-2.9c0.1-0.3,0.3-0.6,0.5-0.9c0.4-0.5,0.8-1,1.1-1.6c0.3-0.5,0.6-0.8,1-1.2c0.6-0.5,1.2-0.9,1.6-1.5
			C70.8,18.5,70.1,16.6,68.4,14.6z M16,26.4c-0.6,1.5-2,2.1-3.3,2.8c-0.5,0.2-0.9-0.1-1.3-0.3c-0.9-0.5-1.5-1.7-1.3-2.6
			c0.2-1,1.2-1.2,1.9-1.5c1-0.3,2-0.4,3-1c0.7-0.4,1.5,0.2,1.5,1.3C16.4,25.5,16.2,26,16,26.4z M18,8.7c-1.2,1.2-1.8,2.9-3,4.1
			c-0.4,0.4-0.8,0.9-1.4,1c-0.4,0.1-0.6,0.4-0.9,0.7c-0.2,0.2-0.4,0.3-0.7,0.2c-0.3-0.1-0.2-0.4-0.3-0.7c0.5-1.5,0.3-3.4,1.9-4.5
			c0.2-0.1,0.4-0.4,0.6-0.5c1.1-0.2,2-0.9,3.1-1.1C17.5,7.8,17.8,7.7,18,8C18.2,8.3,18.1,8.5,18,8.7z M24.3,12.2
			c-0.2,1.2-0.4,2.4-0.5,3.6c-0.2,1.4-0.3,2.7-0.4,4.1c-0.1,0.9-0.4,1.8-0.4,2.8c0,0.3-0.1,0.7-0.5,0.7c-0.5,0-0.5-0.4-0.5-0.7
			c0-0.1,0-0.1,0-0.4c0-0.3-0.1-0.8-0.3-1.2c-0.4-0.7-0.8-1.4-1-2.1c-0.1-0.2-0.3-0.5-0.5-0.7c-0.7-0.8-0.6-0.7-0.2-1.6
			c0.5-0.9,1.1-1.7,1.7-2.6c0.7-1.1,1.4-2.1,1.7-3.4c0-0.2,0.2-0.3,0.4-0.3c0.2,0,0.3,0.1,0.3,0.3C24.3,11.2,24.4,11.7,24.3,12.2z
			 M45.4,21.2c0,1.5-0.9,2.5-1.9,3.4c-0.3,0.3-0.6,0.2-1,0.1c-0.4,0.1-0.9-0.1-1.3-0.3c-0.8-0.4-1.2-1-1.3-1.9
			c-0.1-1.4,0.5-2.7,1.1-3.9c0.2-0.4,0.5-0.8,0.6-1.3c0.4-1.2,1.2-2,1.9-2.9c0.5-0.7,1.4-0.5,1.5,0.4c0.2,0.9,0.6,1.8,0.4,2.8
			c0,0.1,0,0.1,0,0.2C46,18.9,45.4,20,45.4,21.2z"/>
		</symbol>
		<symbol id="film">
			<path d="M73.4,111.5c-0.2-1.3-0.8-2.5-1.3-3.7c-0.2-0.5-0.6-0.9-0.7-1.5c-0.1-0.3-0.2-0.5-0.4-0.7
			c-0.9-1.4-1.5-2.9-1.9-4.5c0-0.2-0.1-0.5-0.2-0.7c-0.8-1.7-0.7-3.5-0.8-5.3c0-0.9,0.1-1.7-0.2-2.6c-0.1-0.3,0-0.6,0.1-0.9
			c0.3-0.8,0.4-1.6-0.1-2.3c-0.5-0.7-0.9-1.5-1.6-1.9c-1.1-0.6-2.2-0.6-3.4-0.4c-0.4,0.1-0.6,0.3-0.8,0.6c-0.3,0.6-0.6,1.2-1.2,1.6
			c-0.2,0.1-0.2,0.4-0.1,0.7c0.1,0.5-0.1,0.9-0.3,1.4c-0.9,1.9-2.1,3.7-2.9,5.6c-0.2,0.5-0.7,0.8-1.1,1.1c-0.2,0.2-0.4,0.1-0.5-0.2
			c-0.2-0.7-0.4-1.4-0.7-2c-0.4-0.8-0.5-1.6-0.6-2.4c-0.1-0.9-1-1.5-0.9-2.4c0,0,0,0-0.1-0.1c-0.4-0.3-0.6-0.7-0.8-1.2
			c-0.4-0.9-0.9-1.2-1.8-1.1c-0.8,0.1-1.6,0.2-2.4,0.2c-0.4,0-0.9,0.1-1.1,0.5c-0.6,1.1-1.4,2.2-1.4,3.5c0,0.9-0.2,1.8-0.6,2.7
			c-0.7,1.9-1.7,3.6-2.4,5.4c-0.3,0.8-1,1.4-1.8,1.6c-0.5,0.1-0.9,0.4-1.2,0.7c-0.6,0.6-1.3,0.9-2.2,1c-0.9,0-1.5-0.6-1.4-1.5
			c0-0.6,0-1.2,0.1-1.8c0.1-1-0.1-2.1,0.1-3.1c0.4-1.7,0.7-3.4,1.1-5c0.2-0.7,0.4-1.5,0-2.1c-0.6-1-1.1-2-2-2.8
			c-0.7-0.6-1.5-0.7-2.4-0.3c-1,0.4-1.8,1.1-1.6,2.2c0.4,1.7-0.2,3.3-0.3,4.9c-0.1,1.3-0.4,2.7-0.6,4.1c-0.2,1.4-0.4,2.7-0.4,4.1
			c0,0.4,0.1,0.8,0.1,1.2c0,0.4,0,0.7-0.5,0.7c-0.4,0-0.6-0.2-0.6-0.6c0-0.4-0.1-0.8-0.1-1.1c-0.1-1.4-0.3-2.9,0.1-4.3
			c0-0.1,0-0.2,0-0.3c-0.1-1,0-2,0.2-3c0.3-1.8,0.7-3.6,1.2-5.4c0.3-1.2,0.3-2.3-0.3-3.3c-0.7-1.1-1.8-1.7-2.8-2.4
			c-0.1-0.1-0.3-0.1-0.4,0c-1.1,0.5-2.2,1-2.6,2.3c-0.2,0.8-0.4,1.6-0.2,2.4c0.4,2-0.1,3.8-0.3,5.8c-0.1,0.6-0.5,1.1-0.9,1
			c-0.5-0.1-0.5-0.6-0.5-1c-0.1-1.2-0.7-1.9-1.9-2.1c-0.1,0-0.2-0.1-0.3-0.1c-1.1-0.3-2.2-0.4-3.2,0.2c-0.2,0.1-0.4,0.2-0.6,0.2
			c-1.8,0.3-3.5,0.6-5.3,0.8c-0.7,0.1-1-0.2-1-0.8c-0.1-0.7-0.1-1.4,0-2.1c0.1-1,0.6-1.4,1.6-1.2c0.6,0.1,1.2,0.2,1.8,0.1
			c0.4-0.1,0.8,0,1.1,0c1.8,0.3,3.6,0.8,5.4,1.4c0.3,0.1,0.5,0.2,0.8,0c0.4-0.2,0.7-0.4,1.1-0.6c0.5-0.4,1-0.8,1-1.5
			c0.2-1.5-0.1-3-1.3-4.1c-1-0.9-2-1.7-3.5-1.2c-0.2,0.1-0.3,0.1-0.5,0c-1.7-0.2-3.4,0-5.2-0.2c-1-0.1-1.9-0.5-2.7-1.1
			c-1-0.8-2-1.8-3.5-1c-0.1,0-0.1,0-0.2,0c-1.3,0.3-2.3,1.9-2,3.1c0.4,1.6,0.6,3.3,0.7,5c0.1,3-0.2,6.1,0.4,9.1c0,0.1,0,0.3,0,0.4
			c-0.2,1.6,0.1,3.2-0.4,4.7c-0.1,0.3,0,0.6,0,0.8c0,0.5,0,1-0.1,1.4c-0.2,0.7-0.2,1.3-0.2,2c0,1.6,1.2,3.4,2.9,3.8
			c1.4,0.3,2.4-0.3,2.6-1.7c0.2-1.6,0.1-3.2,0.4-4.7c0-0.2,0-0.3,0-0.5c0-1.4,0-2.7,0.4-4.1c0.1-0.5,0.4-0.8,0.8-1
			c0.8-0.4,4.1-1.1,5-0.8c0.9,0.2,1.8,0.3,2.7,0.4c0.9,0.1,2,0.1,2.7-0.7c0.3-0.3,0.6-0.6,1-0.5c0.5,0.2,0.5,0.6,0.5,1
			c0,1.4-0.2,2.8,0,4.2c0.1,0.6,0.3,1.2,0.1,1.9c0.1,1.1,0.2,2.3,0.3,3.4c0,0.2,0.1,0.4,0.2,0.6c0.4,0.8,0.9,1.6,1.6,2.2
			c1,0.9,2.1,1.2,3.4,0.8c0.9-0.3,1.2-0.6,1.2-1.6c0-0.2,0-0.3,0-0.5c0.1-0.5,0.3-0.6,0.8-0.4c0.7,0.3,1.4,0.7,2.1,1.1
			c1,0.5,2.1,0.6,3,0c0.9-0.5,1.8-0.8,2.7-0.8c0.9-0.1,1.8-0.3,2.6,0.4c0.1,0.1,0.3,0.1,0.4,0.1c1.2-0.1,2.6,0.4,3.6-0.7
			c0.1-0.1,0.2-0.1,0.3-0.1c0.6-0.2,0.9-0.7,1.1-1.2c0.3-0.9,0.6-1.7,0.4-2.7c-0.1-0.3,0-0.6,0.1-0.9c0.4-1.3,0.6-2.7,1.2-3.9
			c0.3-0.6,0.5-1.2,1.1-1.6c0.2-0.1,0.5-0.2,0.5,0c0.1,0.9,0.9,1.4,1.1,2.2c0.2,1,0.3,2.1,1.1,3c0.1,0.1,0.1,0.4,0.1,0.6
			c0.1,0.6,0.3,1.1,0.6,1.6c0.6,0.8,1.3,1.4,2,2c1.7,1.3,3.7,0.7,4.6-1.2c0.3-0.8,0.7-1.5,0.6-2.5c-0.1-1.9,0.6-3.6,1.6-5.2
			c0.1-0.2,0.2-0.4,0.4-0.3c0.2,0,0.2,0.2,0.3,0.4c0.1,0.2,0.1,0.3,0.1,0.5c0,0.7,0.3,1.3,0.6,1.9c0.2,0.3,0.3,0.7,0.5,1
			c0.4,1,0.6,2,1.1,2.9c0.6,1.2,0.8,2.6,1,3.9c0.3,1.9,1.1,3.3,2.9,3.9c1.4,0.5,2.8,0,3.6-1.3C73.4,112.8,73.5,112.1,73.4,111.5z"/>
		</symbol>
		<symbol id="facebook">
			<path d="M139.6,188.1c-0.1-0.4-0.3-0.8-0.2-1.2c0.2-1.4-0.6-2.4-1.6-3.1c-1.1-0.9-2.3-1.7-3.5-2.6c-1.1-0.9-2.1-1.9-3.4-2.7
				c-0.4-0.2-0.7-0.5-1-0.9c-0.4-0.6-0.4-1.1,0.1-1.5c1-0.9,1.8-2.1,3-2.7c0.7-0.3,1.2-0.8,1.9-1.1c1.7-0.6,2.4-2.5,1.6-4.1
				c-0.2-0.5-0.6-0.9-0.7-1.4c-0.4-1-1.4-1-2.1-1.4c-0.1,0-0.2,0-0.3,0c-0.6,0.6-1.6,0.6-2,1.4c-0.5,0.8-1.2,1.3-1.9,1.9
				c-0.2,0.1-0.4,0.3-0.4,0.4c-0.1,0.4-0.4,0.5-0.8,0.7c-0.5,0.3-1.2,0.5-1.1,1.4c0,0.3-0.3,0.4-0.6,0.5c0,0,0,0,0,0
				c-0.4-0.2-0.8-0.1-1.3,0.1c-0.6,0.3-0.9,0.1-0.9-0.5c0-0.8-0.5-1.5-0.2-2.3c0-0.1,0-0.2,0-0.3c0-1.1-0.8-1.9-1.4-2.7
				c-0.5-0.8-1.5-1.3-2.3-1.1c-0.8,0.2-1.7,1.3-1.8,2.2c-0.2,1.2,0.4,2.1,0.8,3.2c0.1,0.2,0.3,0.3,0.2,0.5c-0.6,1.4-0.2,2.8-0.3,4.3
				c0,0.9,0.1,1.9-0.1,2.8c-0.1,0.5-0.2,0.9,0.1,1.4c0.1,0.1,0,0.2,0,0.3c-0.1,0.2-0.2,0.4-0.4,0.4c-0.2,0-0.2-0.2-0.3-0.4
				c-0.1-0.7-0.2-1.5-0.4-2.2c-0.3-1.2-0.4-2.4-1.1-3.5c-0.2-0.4-0.2-1-0.4-1.4c-0.9-1.4-1.9-2.8-3.1-4.1c-0.7-0.7-1.5-1.3-2.1-2.1
				c-0.4-0.5-1.1-0.8-1.8-0.7c-1.1,0.3-2.3,0.5-3.3,1.1c-1.3,0.8-2.6,1.7-3.2,3.2c-0.3,0.7-0.8,1.3-1.1,2.1c-0.1,0.4-0.5,0.5-0.9,0.3
				c-0.4-0.2-0.7-0.5-0.9-0.8c-0.2-0.3-0.5-0.6-0.8-0.9c-1.5-1.3-2.9-2.6-4.6-3.6c-1.1-0.6-2.4-0.6-3.2,0.3c-0.8,0.9-1.9,1.6-2.4,2.8
				c-0.1,0.1-0.2,0.3-0.4,0.3c-0.4,0.2-0.6,0.6-0.5,1c0,1-0.5,1.9-0.9,2.9c-0.2,0.6-0.5,0.6-1.1,0.4c-0.5-0.2-1-0.4-1.5-0.6
				c-0.5-0.2-0.5-0.5-0.2-0.8c0.2-0.2,0.4-0.4,0.6-0.7c1.4-2.4,1.2-4.8-0.3-7c-0.9-1.4-2.3-2.3-3.7-3.1c-0.2-0.1-0.4-0.1-0.6-0.1
				c-0.7,0-1.5,0.1-2.1,0.4c-1.1,0.5-2.4,0.6-3.4,1.1c-0.3,0.1-0.5,0.1-0.8,0c-0.7-0.2-1.3,0.1-1.8,0.5c-0.6,0.4-0.8,1.1-1.2,1.6
				c-0.4,0.6-0.3,0.6-0.9,0.2c-2-1.8-4.3-2.3-6.9-1.8c-1.7,0.4-3.3,0.9-5.1,0.2c-0.5-0.2-1.2-0.2-1.5,0.3c-0.5,0.6-1,1.3-1.2,2
				c-0.3,1.3-0.5,2.6-0.8,4c-0.3,2-0.6,4-1.1,6c-0.2,0.9-0.3,1.7,0.4,2.4c0.2,0.2,0.3,0.6,0.3,0.9c0.1,1.2,0.7,2.2,0.9,3.4
				c0.1,0.6,0.1,1.2,0.3,1.7c0.5,1.1,0.8,2.3,1.2,3.4c0.7,2,3.3,3.6,5.4,3.6c0.9,0,1.8-0.2,2.6-0.3c1.2-0.2,2.4-0.5,3.5-0.8
				c1.3-0.4,1.7-1.3,1.4-2.6c-0.2-0.7-0.5-1.3-0.9-1.9c-0.5-0.9-1.8-1.5-2.7-1.3c-0.7,0.2-1.3,0.4-2,0.6c-0.7,0.3-1.4,0.5-2.1,0.5
				c-0.9,0-1.1-0.1-1.4-0.9c-0.5-1.5-0.8-3-1-4.5c-0.1-0.6,0.2-1,0.7-1.2c0.3-0.2,0.7-0.3,1.1-0.3c0.8,0,1.7,0,2.5,0.1
				c0.7,0.1,1.4,0.1,2,0.3c0.8,0.3,1.7-0.1,2.1-0.8c0.6-0.9,0.6-1.9,0.2-2.8c-0.7-1.4-1.8-2.3-3.5-2.4c-1.5,0-3-0.4-4.4-0.1
				c-0.3,0.1-0.6,0-0.7-0.3c-0.1-0.3,0.3-1.9,0.7-2.1c0.8-0.3,1.5-0.9,2.4-1c0.6-0.1,1.1-0.2,1.7-0.4c1-0.3,1.8-0.2,2.6,0.4
				c0.3,0.2,0.6,0.3,1,0.3c0.9-0.1,1.9,0.1,2.8-0.2c0.6-0.2,0.9,0,0.8,0.6c0,1.2,0.2,2.5-0.1,3.7c-0.3,1.4-0.2,2.9-0.3,4.3
				c-0.1,1.8-0.1,3.6-0.1,5.5c0.1,1.4,0.1,2.6,0.6,3.9c0.6,1.4,1.5,2.2,3.1,2.3c0.9,0.1,1.5-0.1,1.8-1c0.2-0.5,0.6-0.9,1.2-0.8
				c0.6,0.1,1.2,0,1.8,0c1.6,0,3.1-0.5,4.5-1.4c0.6-0.3,0.9-1,1.5-1.2c0.9-0.3,1.6-0.9,2.1-1.6c0.3-0.5,0.8-0.8,1.2-1.1
				c0.3-0.2,0.6-0.2,0.8,0.1c0.2,0.4,0.6,0.6,1,0.5c0.3,0,0.5,0,0.5,0.3c0,0.3,0.3,0.3,0.4,0.3c1.2,0.6,2.5,0.7,3.7,0.9
				c1.4,0.3,2.6-0.3,3.7-0.9c0.9-0.5,1.9-1.1,2.6-2c0.4-0.4,0.7-0.3,1.1,0.1c0.7,0.7,1.4,1.5,2.2,2.2c0.9,0.8,1.9,1.3,3,1.6
				c2.5,0.6,4.6-0.4,6.6-1.8c1.4-1.1,2.6-2.3,3.3-4c0.3-0.7,0.7-0.7,1.2-0.1c0.1,0.2,0.2,0.5,0.5,0.5c0.4,0,0.5,0,0.1,0.3
				c-0.6,0.5-0.7,1.1-0.6,1.8c0.1,0.5,0.2,1,0.1,1.4c-0.2,0.7,0.2,1.2,0.7,1.6c0.4,0.4,0.8,0.7,0.9,1.3c0,0.2,0.1,0.4,0.4,0.5
				c0.8,0.2,1.5,0.6,2.3,0.7c0.5,0.1,1,0,1.3-0.5c0.4-0.7,0.7-1.4,1-2.2c0.2-0.5,0.1-1-0.2-1.5c-0.5-1-0.3-2,0.6-2.6
				c0.3-0.2,0.5-0.2,0.9-0.1c1.1,0.5,1.9,1.3,2.9,1.9c1,0.7,1.7,1.7,2.7,2.3c0.1,0.8,0.9,1.1,1.1,1.8c0.1,0.3,0.2,0.6,0.5,0.8
				c1.2,1,2.6,1,4,0.3C139.5,189.2,139.7,188.8,139.6,188.1z M131.8,172.7C131.8,172.8,131.9,172.8,131.8,172.7c0.1,0.1,0,0.1,0,0.1
				C131.8,172.8,131.8,172.8,131.8,172.7C131.8,172.8,131.8,172.8,131.8,172.7z M76.8,172.4c0.3-0.4,0.3-0.9,0.3-1.4
				c-0.1-0.9,0.4-1.5,1.3-1.8c0.6-0.2,1.2-0.4,1.8-0.6c0.4-0.1,0.8,0,1,0.3c0.2,0.3,0,0.6-0.1,0.9c-0.5,0.7-1,1.5-1.5,2.2
				c-0.4,0.6-1.1,0.9-1.8,1c-0.2,0-0.4-0.1-0.5-0.1C76.7,172.9,76.6,172.7,76.8,172.4z M85.8,181.5c-1.1,1.4-2.3,2.6-4.1,3
				c-0.3,0.1-0.6,0.1-0.8,0.2c-0.8,0-1.3-0.4-1.7-1c-0.7-1-1.3-1.9-2.8-1.6c-0.6,0.1-0.9-0.4-0.9-1c0-0.5,0-1.1,0.7-1.1
				c1.3,0,2.3-0.4,2.9-1.6c0.1-0.3,0.5-0.5,0.8-0.3c0.9,0.8,1.9,0.3,2.7,0.1c1.1-0.2,2,0.2,2.8,0.8C86.3,179.6,86.4,180.7,85.8,181.5z
				 M98.2,179c-0.2,0.1-0.4,0.2-0.5,0.3c-0.6,0.6-1.3,1-2.1,0.7c-0.8,0.2-1.5,0-2.1-0.3c-1.1-0.4-1.4-1.2-1-2.2
				c0.4-0.9,0.9-1.7,1.6-2.4c0.1-0.2,0.3-0.3,0.5-0.3c0.6-0.1,1.2-0.2,1.6-0.9c0.1-0.2,0.3-0.2,0.4-0.1c1,1,2.3,1.7,2.6,3.2
				C99.3,178.1,99.1,178.5,98.2,179z M108.7,166.8C108.7,166.7,108.7,166.7,108.7,166.8c0.1,0,0.1,0,0.1,0c0,0,0,0.1,0,0.1
				C108.7,166.9,108.6,166.8,108.7,166.8z M112.6,180.2c-0.9,0.9-2,1.5-3.3,1.6c-0.4,0-0.8,0-1-0.2c-0.7-0.7-1.6-1.3-1.7-2.5
				c-0.1-0.6-0.2-1.2-0.2-1.9c-0.1-0.6,0.1-1.5,0.3-2.2c0.6-1.6,1.6-2.5,3.4-1.7c0.3,0.1,0.5,0.2,0.8,0.1c0.9-0.3,1.5,0,2,0.8
				C114.3,176.1,114.2,178.6,112.6,180.2z M114.3,184.2c-0.1,0-0.1-0.1-0.1-0.1c0,0,0-0.1,0.1-0.2c0,0,0.1,0.1,0.1,0.1
				C114.4,184.2,114.4,184.2,114.3,184.2z M114.9,181.4c0,0,0-0.1,0-0.1c0,0,0.1,0,0.1,0c0,0,0.1,0.1,0.1,0.1
				C115,181.3,114.9,181.4,114.9,181.4z M120.4,172.1c-0.1,0.1-0.1,0-0.1-0.1c0,0,0-0.1,0-0.1C120.4,172,120.4,172,120.4,172.1
				C120.5,172,120.5,172.1,120.4,172.1z M120.3,166.7c-0.1,0-0.1,0-0.2-0.1c-0.1-0.2,0-0.3,0.1-0.5c0.1-0.1,0.2,0,0.2,0.1
				C120.5,166.4,120.5,166.5,120.3,166.7z M126.6,172.3C126.6,172.3,126.6,172.3,126.6,172.3c-0.2-0.2-0.1-0.3,0-0.4
				c0,0,0.1-0.1,0.1-0.2c0,0.1,0.1,0.2,0.1,0.2C126.9,172.2,126.8,172.3,126.6,172.3z M131.3,182.6c0,0-0.1-0.1-0.1-0.1
				c0,0,0-0.1,0-0.1c0.1,0,0.1,0,0.1,0C131.4,182.5,131.4,182.6,131.3,182.6z"/>
			<path d="M49.7,165.4c-0.2,0-0.3-0.2-0.5-0.3c-0.9-0.4-1.8-0.9-2.9-0.7c-2.2,0.5-4.4,1.1-6.1,2.8c-1.2,1.2-2.3,2.4-3.1,3.9
				c-0.8,1.5-1.4,3.2-1.3,5c0,0.2,0,0.5-0.2,0.5c-0.3,0.1-0.4-0.2-0.5-0.4c0-0.1,0-0.2-0.1-0.3c-0.4-1-0.7-2-1.3-2.8
				c-1.1-1.6-1.8-3.5-2.5-5.3c-0.4-1.1-0.9-2.1-1.6-3.1c-0.3-0.3-0.5-0.6-0.7-1c-0.3-0.8-1.3-1.5-2-1.3c-1,0.3-2,0.5-2.4,1.7
				c-0.1,0.4-0.3,0.7-0.6,1c-0.6,0.8-1,0.8-1.5,0c-0.4-0.6-0.9-1-1.4-1.3c-1.6-0.8-3.3-1.2-5.1-1.4c-0.8-0.1-1.7,0.1-2.8-0.1
				c-0.4,0-1.1,0-1.8,0c-1,0-2-0.2-2.9-0.6c-0.9-0.4-1.9-0.3-2.7,0.3c-0.9,0.7-1.4,1.7-1.2,2.9c0.1,0.9,0.5,1.7,0.5,2.5
				c0,1.9,0.2,3.8-0.3,5.7c-0.2,0.6-0.2,1.2-0.1,1.7c0.4,2.4,0.5,4.7,0.4,7.1c0,1.6,0.5,3,1,4.4c0.6,1.6,2,2.3,3.6,2.5
				c0.7,0.1,1.4,0,1.7-0.6c0.6-1.2,1.3-2.5,0.1-3.8c0,0-0.1-0.1-0.1-0.2c-0.9-1.5-0.9-3.1-1-4.8c0-0.8,0.6-1.6,1.3-1.6
				c1.5,0.1,3.1-0.3,4.6-0.3c0.6,0,1.2,0,1.8,0.1c0.6,0.1,0.8,0.5,0.6,1.1c-0.1,0.3-0.2,0.5-0.4,0.7c-0.4,0.5-0.6,1.1-0.8,1.8
				c-0.1,0.3-0.1,0.7-0.2,1c-0.7,1.3-0.4,2.5,0.3,3.7c0.4,0.7,1,1.1,1.6,1.5c0.5,0.3,1.1,0.3,1.6-0.1c0.2-0.1,0.3-0.4,0.6-0.4
				c1.5-0.3,3-0.9,4.7-0.5c0.2,0.1,0.5,0,0.7,0c1.1-0.1,2.2-0.3,3.3-0.4c0.8,0,1.4,0.2,1.8,0.9c0.1,0.3,0.3,0.4,0.6,0.6
				c0.8,0.6,1.5,1.3,2.1,2.1c0.8,1.1,1.8,1.3,3,1.4c0.4,0,0.7-0.1,0.9-0.4c0.4-0.7,0.9-1.2,1.1-2c0.2-0.7,0.4-1.3-0.2-1.9
				c-0.1-0.1-0.1-0.4-0.2-0.6c0-0.2,0-0.4,0.2-0.5c0.2-0.1,0.4-0.1,0.6,0.1c0.2,0.2,0.3,0.6,0.5,0.7c1.3,0.8,2.5,2,4.2,2
				c0.3,0,0.5,0.1,0.8,0.1c0.5,0.1,1,0,1.5-0.1c1.6-0.4,3.1-1,4.3-2.1c0.6-0.5,1.2-1,1.1-1.8c-0.2-1.4-0.8-2.5-2.1-3.3
				c-0.8-0.5-1.6-0.5-2.4-0.1c-0.4,0.2-0.8,0.4-1.2,0.7c-1.2,0.9-2.8,0.7-3.7-0.4c-1.1-1.3-1.6-2.9-2-4.6c-0.3-1.2,0-2.3,0.5-3.4
				c0.7-1.3,1.6-2.3,2.9-3c1.2-0.7,2.4-0.6,3.3,0.3c0.5,0.6,1.2,1,1.8,1.4c0.8,0.5,1.7,0.3,2.5,0.1c0.3-0.1,0.5-0.3,0.5-0.6
				c0.1-0.6,0.3-1.3,0.3-1.9c0-1.2-0.6-2.2-1.2-3C51.4,166.5,50.9,165.4,49.7,165.4z M21.7,170.9c-0.2,0.9-0.8,1.7-1.2,2.5
				c-0.2,0.4-0.7,0.4-1.1,0c-0.3-0.3-0.6-0.7-0.9-1c-0.5-0.6-1.1-0.8-1.9-0.8c-0.5,0-1-0.1-1.4,0c-1.1,0.3-2.1-0.1-3.2,0.2
				c-0.8,0.2-1.5-0.6-1.5-1.5c0.1-1.4,0.7-2.2,2.1-2.5c0.5-0.1,1-0.4,1.6-0.4c0.7,0.1,1.3,0.1,2,0.2c0.5,0.1,0.8,0.2,1,0.7
				c0.3,1,1.2,1.3,2.1,1.4c0.6,0.1,1.2,0.1,1.8,0.1C21.6,170.2,21.8,170.4,21.7,170.9z M30.4,180.3c-1.4-0.2-2.7,0.1-4.1,0.3
				c-0.6,0.1-1.2,0.1-1.8,0.1c-0.5,0.1-0.6-0.2-0.5-0.6c0.2-0.7,0.3-1.5,0.7-2.2c0.5-0.8,0.7-1.7,0.9-2.6c0.3-1.1,0.9-1.9,1.4-2.8
				c0.2-0.3,0.5-0.3,0.8-0.1c0.3,0.2,0.5,0.5,0.6,0.8c0.7,1.6,1.3,3.1,2.1,4.6c0.3,0.5,0.5,1.1,0.5,1.8
				C31.2,180.2,31,180.3,30.4,180.3z"/>
		</symbol>
		<symbol id="bandcamp">
			<path d="M59.9,287.5c0.8-1.1,0.8-2.3,0.1-3.5c-0.5-0.9-0.9-1.8-1.6-2.5c-0.4-0.4-0.8-0.7-1.3-0.9c-1.2-0.4-2.5-0.3-3.4,0.7
				c-0.9,1-1.2,2.1-0.8,3.6c0.4,1.4,0.7,2.9,0.7,4.4c0,0.5,0,1,0,1.4c0,0.2,0,0.4-0.1,0.5c-0.2,0.1-0.4-0.1-0.5-0.3
				c-0.1-0.2-0.3-0.5-0.4-0.7c-0.1-0.4-0.4-0.7-0.7-1c-0.7-0.6-1.3-1.2-1.7-2c-0.5-0.9-1.1-1.4-1.8-2c-1.1-0.9-3.9-0.6-4.4,1.3
				c-0.3,1.4-0.3,2.7-0.2,4.1c0.1,0.8,0.1,1.5,0,2.3c-0.1,0.5-0.3,1.1-0.2,1.6c0.2,1-0.1,1.9-0.3,2.8c-0.1,0.9-1.1,1.1-1.8,0.5
				c-1.9-1.5-2.6-3.7-3.6-5.7c0-0.1,0-0.1-0.1-0.2c-0.4-1.3-0.5-2.6-0.6-4c-0.1-1.3-0.5-2.6-0.7-3.8c-0.2-1.1-0.9-1.9-1.4-2.9
				c-0.4-0.9-1.4-1.2-2.1-1.8c0,0-0.1,0-0.2,0c-0.8,0.1-1.6,0.4-2.3,0.7c-0.6,0.3-0.5,0.8-0.7,1.3c-0.2,0.5-0.4,1-0.7,1.5
				c-0.1,0.3-0.3,0.5-0.3,0.8c-0.2,1.3-0.7,2.5-1.1,3.8c-0.4,1.2-1,2.3-1.4,3.6c-0.3,0.9-0.7,1.7-1.1,2.6c-0.3,0.6-0.7,0.7-1.2,0.2
				c-0.1-0.1-0.2-0.3-0.3-0.4c-0.4-0.8-1.1-1.4-1.8-2c-0.9-0.8-0.9-0.8-0.4-1.8c0.8-1.4,1.5-2.8,1.9-4.4c0.2-0.9,0.2-1.7-0.2-2.5
				c-0.3-0.7-0.7-1.3-1-1.9c-0.9-1.7-2.5-2.3-4-3.1c-0.5-0.2-1.1-0.4-1.7-0.3c-0.9,0.2-1.9,0.1-2.8,0.2c-0.7,0-1.3,0.1-1.9,0.3
				c-0.9,0.3-1.9,0.7-2.9,0.8c-0.9,0.1-1.7,0.4-2.4,0.8c-1.1,0.6-1.6,1.5-1.8,2.7c-0.1,0.7,0.2,1.4,0,2c-0.3,0.7-0.1,1.4,0.2,2
				c0.2,0.3,0.3,0.7,0.4,1.1c0.3,1.7,0.6,3.4,0.6,5.1c0,0.3,0,0.5,0,0.8c0.5,1.9,0.5,3.8,0.3,5.7c-0.1,0.7-0.1,1.4,0,2.1
				c0.1,0.9,0.1,1.8,0,2.7c-0.2,1.9,0.8,3.9,2.4,5c1.8,1.2,3.6,0.2,4.3-1.1c0.2-0.4,0.5-0.8,0.7-1.3c0.2-0.4,0.5-0.7,0.9-0.8
				c0.9-0.3,1.8-0.7,2.7-1c1.3-0.5,2.5-0.9,3.6-1.8c1.1-0.9,1.6-0.7,1.9,0.7c0.3,1.4,1.3,2.2,2.4,2.8c0.8,0.5,3.1-0.1,3.6-0.9
				c0.9-1.1,2-1.7,3.5-1.7c0.4,0,0.8,0,1.2-0.2c0.8-0.4,1.7,0,2.6-0.1c0.2,0,0.3,0.1,0.4,0.3c0.3,0.5,0.7,0.9,1.1,1.4
				c0.7,1,1.2,2.2,2.5,2.6c2.4,0.8,3.6,0.4,4.4-1.6c0-0.1,0.1-0.2,0.1-0.3c0.2-0.7,0.6-1,1.3-1.1c0.9-0.1,1.7-0.4,2.5-0.7
				c0.4-0.2,0.7-0.4,0.9-0.8c0.9-1.7,0.8-3.4,0.2-5.1c-0.1-0.4-0.3-0.7,0.1-0.9c0.4-0.2,0.7,0,0.8,0.4c0.5,0.9,1.3,1.5,1.8,2.3
				c0.8,1.3,2.1,2.1,3.1,3.1c0.2,0.2,0.4,0.2,0.6,0.2c1.1,0,2.1-0.2,3-0.6c0.8-0.4,0.8-1.3,1.1-1.9c0.1-0.3,0.1-0.5,0-0.8
				c-0.1-0.6-0.1-1.2-0.1-1.8c0-1.6,0.1-3.2-0.2-4.8c-0.2-1.2-0.4-2.3-0.4-3.5C59.3,288.9,59.4,288.2,59.9,287.5z M13.5,289.4
				c-0.7,0.6-1.6,1.4-2.5,0.9c-0.8-0.4-0.5-1.5-0.4-2.3c0.2-2.6,2.4-4.5,5.3-4.5c0.6,0.1,1.4-0.3,1.8,0.4c0.4,0.8-0.4,1.2-0.7,1.8
				C16.1,287.2,14.8,288.3,13.5,289.4z M18.9,298c-1.8,0.8-3.6,1.5-4.9,2c-1.9,0.2-2.5-0.6-2.8-1.7c-0.3-1.1,0.4-1.5,1.3-1.9
				c1.4-0.6,2.7-1.2,4.1-1.7c0.3-0.1,0.7-0.2,1.1-0.2c1,0,2.2-0.1,2.7,1.1C20.8,296.8,19.8,297.5,18.9,298z M34.3,298.6
				c-0.9,0.4-1.9,0.6-2.9,0.3c-0.9-0.3-1.5-0.9-1.6-2c-0.3-2,0.4-3.8,1.4-5.4c0.3-0.5,0.8-0.7,1.1-0.2c1,1.9,2.2,3.8,3,5.9
				C35.2,297.8,35,298.3,34.3,298.6z"/>
			<path d="M121.8,303.1c-0.1-0.1-0.2-0.4-0.2-0.6c-0.1-0.2-0.2-0.4-0.3-0.5c-1.5-0.8-2.2-2.3-3-3.7c-1.2-2.1-2-4.5-3.7-6.4
				c-0.1-0.1-0.1-0.2-0.2-0.3c-0.6-1.5-1.3-2.9-2-4.4c-0.9-1.8-2-3.3-3.8-4.2c-1-0.5-1.8-0.3-2.5,0.5c-0.7,0.8-0.9,1.9-1.5,2.8
				c-0.3,0.6-0.7,1.2-0.8,1.8c-0.2,1.3-1.1,2.4-1.3,3.8c-0.2,1.3-0.8,2.5-1.1,3.8c-0.3,1.5-1.1,2.8-1.3,4.4c-0.1,0.6-0.6,0.7-1.1,0.3
				c-0.3-0.3-0.5-0.6-0.7-0.9c-0.9-1.7-3.1-1.7-4.2-0.9c-0.4,0.4-1,0.6-1.5,0.7c-1.4,0.3-2.9,0.1-4.3,0c-0.6-0.1-1.1-0.4-1.6-0.8
				c-0.4-0.3-0.7-0.7-0.6-1.3c0.1-0.5,0.1-1,0.3-1.5c0.5-1.5,1.4-2.7,2.5-3.8c1.4-1.4,3.1-2.2,5.1-2c0.4,0,0.8,0.1,1.2,0.1
				c0.8-0.1,1.7-0.2,2-1c0.5-1.2,0.3-2.6-0.3-3.7c-0.6-1.2-1.6-2.1-2.9-2.5c-0.7-0.3-1.4-0.3-2,0.3c-0.4,0.4-0.9,0.7-1.4,0.8
				c-1.2,0.2-2.3,0.8-3.3,1.4c-0.6,0.3-1.2,0.6-1.7,1c-1,1-1.9,2-2.7,3.3c-0.6,1-1.1,1-1.6-0.1c-0.6-1.5-1.7-2.6-2.8-3.7
				c-0.8-0.8-1.7-1.3-2.7-1.7c-0.9-0.3-1.8-0.6-2.6-0.9c-0.8-0.3-1.5-0.5-2.4-0.5c-0.8,0-1.5-0.3-2.2-0.8c-0.5-0.4-0.9-0.9-1.2-1.4
				c-0.4-0.7-1.1-1-1.9-1.1c-0.7-0.1-1.6,0.3-1.9,0.8c-0.4,0.9-0.8,1.8-0.8,2.9c0,0.6,0,1.2-0.3,1.8c-0.2,0.5-0.3,1-0.1,1.5
				c0.6,1.5,0.8,3.1,0.6,4.8c-0.1,1.3-0.2,2.6-0.5,3.9c-0.1,0.3-0.1,0.6-0.1,0.9c0.2,0.8,0.1,1.6,0,2.4c0,0.7,0.1,1.4,0.6,1.9
				c1,1,1.7,2.3,3,3.1c0.1,0.1,0.2,0.2,0.3,0.3c1.6,1.8,3.6,1.8,5.1,0c1.1-1.4,2.4-2.3,3.9-3.2c0.9-0.5,1.6-1.2,2.3-1.9
				c0.6-0.6,1.1-1.2,1.9-1.6c0.6-0.3,0.8-0.3,0.9,0.4c0.2,1.4,0.9,2.5,1.2,3.9c0,0.2,0.2,0.4,0.3,0.5c0.8,1.3,2.2,2,3.4,3
				c0.3,0.2,0.7,0.2,1.1,0.4c0.8,0.3,1.6,0.3,2.3,0.5c1.8,0.5,3.6,0.7,5.5,0.8c0.2,0,0.4,0.1,0.6,0c1.3-0.4,2.7-0.5,3.9-1.2
				c0.6-0.4,1.1-0.2,1.5,0.4c0.1,0.2,0.2,0.4,0.3,0.5c0.8,0.9,1.4,2,2.9,1.4c0.3-0.1,0.8,0,1.1,0c0.8,0,1.7-0.1,2.4-0.6
				c0.2-0.1,0.5-0.2,0.7-0.2c1.7-0.3,3.4-0.7,5.2-1c0.7-0.1,1.5,0.1,2.3,0c0.1,0,0.2,0,0.3,0.1c0.5,0.5,1.3,0.9,1.5,1.7
				c0.3,0.9,0.8,1.5,1.8,1.7c0.2,0.1,0.5,0.2,0.7,0.3c0.8,0.4,1.6,0.6,2.3,0c0.9-0.7,1.5-1.6,1.2-2.8
				C122.6,305.2,122.7,304,121.8,303.1z M77.1,291.7c-0.5,0.9-1.3,1.5-2.1,2c-1.7,1.3-3,2.9-5.1,3.6c-1,0.4-1.5,0.3-2-0.7
				c-0.6-1.2-0.7-2.5-0.9-3.9c0.1-0.3,0.1-0.8,0.2-1.3c0.2-1,0.4-2,0.4-3.1c-0.1-1.5,0.7-2.1,2.2-1.8c2.1,0.5,4.3,1,6.3,2
				C77.7,289.3,77.9,290.1,77.1,291.7z M112.8,300.4c-0.1,0.1-0.3,0.1-0.4,0.1c-2,0.2-4,0.1-5.7,0.5c-0.9,0.1-1.2-0.3-1.3-0.9
				c0-0.3,0-0.5,0-0.8c0.9-2.2,1.1-4.6,1.9-6.8c0.2-0.6,0.4-1.5,1.1-1.5c0.9-0.1,1,0.9,1.4,1.4c1.3,2,2.1,4.2,3.5,6.1
				C113.9,299.3,113.6,300.1,112.8,300.4z"/>
			<path d="M166.4,286.1c-0.7-1.3-1.6-2.5-2.7-3.5c-0.6-0.6-1.3-1-2.3-1.1c-0.9-0.1-1.8-0.1-2.7-0.1c-0.9,0-1.8,0.2-2.6,0.4
				c-0.4,0.1-0.9,0.3-1.3,0.4c-1.4,0.4-2.8,1-4,1.8c-0.9,0.6-1.6,1.3-1.8,2.4c-0.4,1.8-0.6,3.6,0.3,5.3c0.1,0.2,0.1,0.5,0.2,0.7
				c0.2,2.1,0.5,4.2,0.7,6.2c0,0,0,0-0.1,0c0,0.6,0,1.1,0,1.7c0,0.2-0.1,0.5-0.4,0.5c-0.3,0-0.4-0.2-0.4-0.5c0-0.4,0-0.8,0-1.2
				c-0.1-0.8-0.3-1.5-1-2.1c-1.5-1.5-3-3.1-4-4.9c-0.7-1.4-1.6-2.8-1.9-4.4c0-0.2-0.1-0.4-0.2-0.6c-0.5-0.9-1.3-1.7-2.1-2.4
				c-1-0.9-2.4-0.8-3.2,0.3c-0.7,1-1.3,1.9-1.6,3.1c-0.3,1.3-0.7,2.6-1.4,3.7c-0.4,0.6-0.5,0.6-0.9,0c-0.4-0.6-0.6-1.4-1.1-2
				c-0.9-1.2-2-2.2-3.4-2.9c-1.1-0.5-2.1-0.3-3,0.2c-0.2,0.1-0.3,0.2-0.3,0.4c-0.1,0.9-0.6,1.8-0.7,2.7c-0.1,1.8-0.4,3.5-0.8,5.2
				c-0.4,1.6-0.9,3.3-1.4,4.9c-0.2,0.5-0.3,1.1,0,1.5c0.7,0.9,0.9,2.1,2,2.8c1.3,0.8,3.3,0.8,4.1-0.6c0.5-0.8,1-1.7,0.8-2.7
				c0-0.2,0-0.5,0.3-0.6c0.3-0.1,0.4,0.2,0.5,0.4c0.6,0.7,0.8,1.8,1.9,2c0.1,0,0.1,0.1,0.2,0.1c0.3,0.8,1,0.7,1.7,0.7
				c1.8,0.1,3.6-1.4,3.9-3.1c0.3-1.5,1-2.9,1.4-4.4c0-0.1,0.1-0.2,0.1-0.3c0.2-0.3,0.6-0.4,0.8-0.1c0.3,0.4,0.8,0.8,0.8,1.3
				c0.2,1.5,1,2.8,1.5,4.2c0.9,2.2,1.4,2.8,3.3,3.5c0.7,0.3,1.3,0.3,1.9-0.1c0.9-0.6,1.7-1.2,2.1-2.2c0.2-0.4,0.4-0.4,0.6,0
				c0.2,0.4,0.3,0.8,0.3,1.2c0.1,1.4,0.5,2.8,0.5,4.2c0,0.4,0.2,0.8,0.5,1.1c0.5,0.5,0.8,1.2,1.3,1.7c1.4,1.8,3.3,1.4,4.6,0
				c0.1-0.1,0.2-0.3,0.2-0.5c0.1-0.9,0.2-1.7-0.1-2.6c-0.5-1.5-0.8-3.1-1.3-4.6c-0.2-0.5-0.2-1.1-0.2-1.6c0.1-1,0.3-1.3,1.2-1.5
				c0.4-0.1,0.7-0.3,1-0.4c1.4-0.7,2.6-1.9,4-2.5c0.2-0.1,0.3-0.2,0.4-0.3c1.3-1.2,2.5-2.4,3.4-4C167.7,290.7,167.5,288.4,166.4,286.1
				z M163.5,288.3c-1.3,2-2.8,3.8-5.1,4.8c-0.8,0.3-1.6,0.6-2.5,0.4c-2.1-0.1-2-0.1-2-2.1c-0.1-1.9,0.6-3.2,2.4-4
				c1.7-0.8,3.5-1.3,5.4-1.7c0.7-0.1,1.5-0.1,2,0.6C164.1,287,163.9,287.7,163.5,288.3z"/>
		</symbol>
		<symbol id="soundcloud">
			<path d="M70.6,208.9c-0.4-0.5-0.7-1-1-1.5c-0.6-1.1-2.1-1.4-3.4-0.8c-0.9,0.4-1.6,2-1.3,3c0.5,1.7,0.6,3.4,0.7,5.8
				c0.1,0.8-0.3,2.1-0.6,3.5c-0.1,0.2,0,0.5-0.3,0.6c-0.3,0-0.4-0.2-0.5-0.4c-0.6-0.9-1.2-1.9-1.8-2.9c-0.8-1.3-1.7-2.6-2.5-3.9
				c-0.6-1-1.3-2-2.3-2.7c-0.4-0.3-0.9-0.6-1.3-0.8c-0.7-0.5-1.4-0.4-1.9,0.2c-0.5,0.6-1.1,1-1.3,1.8c-0.2,0.6-0.7,0.6-1,0.1
				c-0.3-0.5-0.6-0.9-0.7-1.5c-0.1-0.8-0.7-1.4-0.9-2.2c0-0.2-0.3-0.3-0.4-0.4c-0.6-0.3-1.3-0.6-2-0.6c-0.6,0-1.2-0.1-1.7,0.4
				c-0.6,0.7-1,1.7-0.7,2.6c0.3,1,0.8,1.9,1.4,2.7c1.7,2.1,2.6,4.5,1.9,7.2c-0.1,0.4-0.3,0.7-0.5,1c-0.7,0.8-1.7,1-2.6,0.9
				c-1.5-0.2-2.5-0.6-2.9-2.5c-0.3-1.5-0.5-3-0.3-4.5c0.3-2.3-0.5-4.2-2.2-5.7c-1.3-1.1-2.9-0.6-3.5,0.9c-0.1,0.4-0.3,0.8-0.3,1.2
				c0,0.2,0,0.4-0.1,0.6c-0.1,0.4-0.4,0.5-0.8,0.3c-0.2-0.2-0.4-0.4-0.5-0.6c-0.2-0.3-0.4-0.6-0.7-0.9c-1-0.8-2-1.5-3.1-2.1
				c-1-0.6-2.1-0.7-3.3-0.9c-0.4-0.1-0.8,0-1.2,0.3c-0.5,0.3-1,0.6-1.6,0.8c-2.6,1.3-4.6,3.1-5.5,6c-0.1,0.3-0.2,0.5-0.3,0.8
				c-0.2,0.4-0.4,0.5-0.6,0.1c-0.4-0.7-1-1.2-1.6-1.8c-0.8-0.8-1.6-1.6-2.7-2c-0.8-0.3-1.7-0.7-2.5-0.9c-0.9-0.2-1-0.8-0.4-1.4
				c1.2-1.2,3.6-1.3,4.7,0.1c0.8,1,1.9,1.3,3,1.4c2.4,0.2,3.5-2.3,2.7-4.1c-0.6-1.2-1.2-2.3-2-3.3c-0.3-0.4-0.5-0.5-1-0.5
				c-0.6,0-1.1-0.1-1.5-0.6c-0.2-0.2-0.3-0.4-0.6-0.4c-0.6,0-1.1-0.2-1.7-0.3c-0.8-0.1-1.6-0.2-2.4,0c-1.7,0.4-3.1,1.4-4.6,2.1
				c-0.3,0.1-0.5,0.4-0.6,0.7c-0.2,0.3-0.4,0.6-0.7,0.9c-1,1.1-1.6,2.4-2.1,3.8c-0.5,1.4,0.4,2.7,0.9,4c0.6,0.3,0.9,0.9,1.3,1.3
				c1.4,1.2,3.1,1.9,4.9,2.4c1.7,0.5,3.1,1.3,3.5,3.2c0,0.1,0.1,0.2,0.1,0.3c0.6,0.5,0.6,1.1,0.3,1.8c-0.1,0.2-0.1,0.4-0.1,0.6
				c-0.1,0.7-0.3,0.8-1,0.6c-0.3-0.1-0.6-0.3-0.9-0.5c-0.7-0.6-1.1-1.5-1.6-2.2c-0.8-1.2-2.5-1.5-3.8-0.7c-0.9,0.6-1.2,1.4-1.5,2.4
				c-0.3,1.1,0.2,3,1,3.7c0.3,0.2,0.7,0.3,0.9,0.6c1.2,1.2,2.4,2.3,4.2,2.6c0.2,0,0.4,0.2,0.5,0.3c0.6,0.4,1.3,0.5,2.1,0.5
				c0.9,0,1.7-0.2,2.6-0.2c0.3,0,0.5-0.1,0.8-0.3c1-0.7,1.8-1.6,2-2.9c0.1-0.4,0.2-0.9,0.4-1.3c0.3-0.6,0.6-0.7,1.1-0.2
				c0.3,0.3,0.5,0.6,0.7,0.9c0.7,1.1,1.7,1.9,2.9,2.5c0.3,0.2,0.7,0.3,1,0.5c1.6,1.3,3.5,1.8,5.5,1.5c0.7-0.1,1.4,0,2.1-0.3
				c2-0.8,3.1-2.3,3.8-4.2c0.6-1.6,1-1.6,2.1-0.5c1,1,2.2,1.6,3.6,2c1.7,0.4,3.5,0.2,5.2,0.2c0.2,0,0.4-0.1,0.6-0.2
				c1.3-0.4,2.2-1.4,3-2.4c0.6-0.8,1.2-1.7,1.2-2.8c0-0.3-0.1-0.8,0.4-0.9c0.4,0,0.4,0.5,0.5,0.8c0.1,0.2,0.1,0.4,0.1,0.6
				c0,0.8-0.1,1.5-0.1,2.3c-0.1,1.9,0.1,3.6,1.8,4.9c0.8,0.6,1.9,0.9,2.5,0.5c1.1-0.7,1.8-1.4,1.6-2.6c-0.1-0.8,0.2-1.6,0-2.5
				c-0.1-0.5,0.3-0.7,0.8-0.4c0.4,0.3,0.8,0.6,1.1,0.9c1.1,1.1,2.3,1.9,3.6,2.6c0.5,0.3,1.2,0.5,1.7,0.2c1-0.5,2-1.2,2-2.5
				c0-0.7,0.1-1.4,0.2-2.2c0.2-1.7,0.4-3.4,0.3-5.1c0-0.7,0.2-1.4,0.5-2c0.8-1.4,0.7-3,0.6-4.5C71.6,210.7,71.3,209.7,70.6,208.9z
				 M33.6,222.4c-0.6,0.9-1.9,1.4-2.9,1.1c-1-0.3-1.9-0.6-2.8-1.1c-0.4-0.2-0.7-0.5-0.9-0.8c-0.4-0.4-0.7-0.9-1.2-1.3
				c-0.5-0.6-0.7-1.3-0.8-2.1c-0.1-0.5-0.1-1-0.1-1.4c0-0.7,0.4-1.2,0.9-1.6c0.5-0.4,1-0.6,1.7-0.4c0.6,0.2,1.4-0.1,2.1,0
				c0.3,0,0.4-0.3,0.5-0.6c0.2-0.4,0.4-0.5,0.9-0.4c1.6,0.5,2.5,1.7,3.1,3c0.3,0.6,0.2,1.3,0.3,1.7C34.5,220.1,34.3,221.3,33.6,222.4z
				"/>
			<path d="M109.4,224.2c0-0.5-0.3-0.8-0.7-1.1c-0.8-0.5-2.6-0.2-3.2,0.5c-0.3,0.3-0.5,0.7-0.9,0.8c-1.3,0.4-2.7,0.4-3.9-0.4
				c-0.9-0.6-1.7-1.2-2.5-2c-0.8-0.8-1.4-1.7-0.7-2.8c0.1-0.1,0.1-0.3,0.1-0.4c0.2-1.2,0.8-2.2,1.5-3.1c0.5-0.6,1.1-1.1,1.6-1.7
				c0.6-0.7,1.5-1.1,2.4-1.2c0.9-0.1,1.8-0.1,2.6,0.2c0.7,0.3,1.2,0.2,1.9-0.1c1-0.4,1.6-1.7,1.2-2.7c-0.2-0.6-0.5-1.3-0.8-1.9
				c-0.6-1.5-1.7-2.4-3.2-2.3c-3.2,0.1-6.1,1.2-8.3,3.6c-1.4,1.6-2.9,3.2-3.5,5.4c-0.1,0.2-0.2,0.4-0.5,0.4c-0.3,0-0.3-0.2-0.4-0.4
				c-0.2-0.7-0.6-1.4-1-2c-0.8-1.4-1.9-2.6-3-3.8c-0.6-0.7-1.5-1.1-2.2-1.7c-2-1.5-4.2-2.3-6.6-2.6c-0.8-0.1-1.6-0.1-2.4-0.3
				c-1.9-0.4-3.3,0.4-3.9,2.3c-0.2,0.7-0.4,1.4-0.7,2c-0.3,0.7-0.1,1.4,0.2,1.9c0.4,0.7,0.5,1.5,0.5,2.3c0,0.6,0.1,1.2,0.3,1.7
				c0.2,0.5,0.2,1.1,0.1,1.6c-0.1,1.4-0.4,2.9-0.3,4.3c0.1,1,0.4,2,0.2,3c0,1-0.1,2,0.7,2.8c0.1,0.1,0.1,0.3,0.1,0.5
				c0.1,0.3,0.3,0.5,0.4,0.8c0.6,0.8,1.4,1.3,2.4,1.5c0.9,0.2,1.6,0.3,2.3-0.4c0.3-0.3,0.6-0.4,0.9-0.2c0.8,0.3,1.5,0.5,2.2-0.1
				c0.1-0.1,0.2,0,0.3,0c0.7,0,1.1-0.4,1.4-1c0.2-0.3,0.3-0.7,0.7-0.9c2.3-1.8,4.5-3.8,6.6-5.9c0.5-0.5,0.9-0.5,1.1,0.2
				c0.5,2.1,1.8,3.7,3.2,5.2c0.5,0.5,1,1,1.5,1.5c1,1.1,2.4,1.8,3.7,2.3c2.4,0.9,4.8,0.7,7.3-0.1c1.6-0.5,2.1-1.4,2.3-2.9
				c0-0.5,0-0.9-0.4-1.2C109.6,225.3,109.5,224.7,109.4,224.2z M86.8,215.6c-0.1,0.6-0.3,1.3-0.7,1.7c-0.9,0.8-1.7,1.8-2.8,2.4
				c-0.6,0.3-1.1,0.6-1.7,0.7c-0.4,0.1-0.7,0.2-1.1,0.3c-1,0.4-1.6,0-1.8-1.1c-0.1-0.5,0-0.9,0.1-1.3c0-0.2,0-0.3,0-0.5
				c-0.1-0.9-0.1-1.9-0.1-2.8c0-1,0.2-2,0.4-3c0.1-0.7,0.8-1,1.5-0.8c1.2,0.3,2.5,0.6,3.6,1.3c0.9,0.6,1.6,1.6,2.5,2.3
				C86.9,214.9,86.9,215.3,86.8,215.6z"/>
			<path d="M176.1,217.5c0-0.7-0.1-1.3-0.2-2c0-0.4-0.2-0.8-0.7-0.6c-0.2,0.1-0.4,0.1-0.4-0.1c0-0.1,0.1-0.3,0.2-0.3
				c0.4-0.2,0.7-0.5,0.3-0.9c-0.4-0.3-0.3-0.7-0.4-1.1c-0.1-0.4,0-0.8-0.2-1.1c-0.9-1.5-1.9-3-3.3-4.1c-0.7-0.6-1.5-1.2-2.2-1.8
				c-0.5-0.5-1.3-0.5-1.9-0.9c-0.2-0.1-0.4,0.1-0.5,0.2c-0.8,0.5-1.1,0.3-1.1-0.5c0-0.4,0-0.7-0.5-0.8c-0.9-0.2-1.7-0.9-2.8-0.6
				c-0.2,0-0.4-0.1-0.5-0.3c-0.1-0.2-0.2-0.3-0.3-0.4c-1.2-0.6-2.5-0.4-3.8-0.6c-0.1,0-0.3,0.1-0.4,0.1c-0.8,0.4-1.5,0.9-1.7,1.9
				c-0.2,0.7-0.3,1.3,0.1,1.9c0.4,0.6,0.1,1.4,0.8,1.9c0.1,0,0.1,0.1,0.2,0.1c0.7,0.4,0.9,0.8,0.7,1.5c-0.2,1,0,2,0,2.7
				c0.1,1.2,0,2.2,0,3.1c0,0.2,0,0.5-0.3,0.6c-0.3,0-0.3-0.3-0.3-0.5c-0.3-0.9-0.5-1.8-0.8-2.7c-0.2-0.5-0.2-1-0.1-1.5
				c0.2-0.8-0.4-1.5-0.1-2.3c0-0.1-0.1-0.3-0.2-0.4c-0.4-0.3-0.7-0.8-1-1.2c-0.2-0.3-0.4-0.4-0.8-0.1c-0.4,0.3-0.4,0.2-0.5-0.2
				c-0.2-0.5-0.8-0.9-1.3-1.3c-0.1-0.1-0.2,0-0.3,0c-1.2,0.1-2.5,1.8-2.1,3c0.4,1.3,0.5,2.6,1.2,3.9c0.9,1.4,1,3.3,1,5
				c0,0.2,0,0.3-0.2,0.5c-0.4,0.5-0.8,1.1-0.9,1.8c0,0.2-0.2,0.3-0.4,0.3c-1.9,0.1-3.3-1-4.2-2.5c-0.3-0.4-0.7-0.9-0.7-1.3
				c0-0.7-0.2-1.3-0.1-1.9c0.2-1.3-0.2-2.5-0.4-3.7c-0.3-1.4-1.1-2.1-2.4-2.4c-0.8-0.2-2.1,0.3-2.6,0.9c-0.9,1.3-0.9,2.7-0.4,4.1
				c0.4,1,0.5,2.1,0.7,3.1c0.3,1.6,0.8,3.1,1.8,4.5c0.7,0.9,1.6,1.5,2.3,2.4c0.4,0.5,0.7,1,1.2,1.4c1.1,0.9,2.5,1.2,3.8,1.8
				c0.4,0.2,1,0.2,1.4,0c0.4-0.3,1-0.1,1.2-0.5c0.4-0.7,0.7,0.1,1.1-0.1c0.1-0.1,0.3,0,0.4-0.1c0.7-0.6,1.7-0.8,2.1-1.7
				c0.2-0.4,0.5-0.7,0.7-1.2c0.1-0.3,0.3-0.5,0.6-0.5c0.3,0,0.5,0.3,0.6,0.5c0.1,0.4,0.3,0.7,0.3,1.1c0.3,1.6,0.8,3.2,2,4.4
				c0.6,0.7,1.1,1.5,2,2c1.2,0.7,1.4,0.8,2.6-0.1c0.3-0.2,0.5-0.4,0.6-0.8c0.1-0.3,0.2-0.4,0.5-0.5c0.4-0.1,0.6-0.4,0.9-0.7
				c0.3-0.4,0.7-0.7,1.2-0.9c0.5-0.2,1-0.4,1.3-0.8c0.4-0.6,1-0.9,1.6-1.1c0.3-0.1,0.7-0.2,0.9-0.5c0.2-0.3-0.2-0.7,0.1-1
				c0.4-0.4,0.6,0.4,1,0.2c0.5-0.2,1-0.5,1.2-1c0.4-1.1,1.3-2,1.9-3.1C175.9,219,176.1,218.3,176.1,217.5z M150.6,208.3
				c-0.1,0-0.3-0.1-0.3-0.3c0-0.2,0.4-0.7,0.6-0.7c0.1,0,0.2,0.1,0.2,0.2C151.1,207.9,150.8,208.3,150.6,208.3z M140.7,211.7
				c0,0.1-0.1,0.2-0.2,0.2c-0.1,0-0.2,0-0.2-0.2c0-0.1,0.1-0.3,0.2-0.2C140.7,211.5,140.8,211.6,140.7,211.7z M141.9,217.3
				c-0.1,0-0.2,0-0.2-0.1c0-0.1,0-0.2,0.1-0.2c0,0,0.1,0,0.2,0.1C142.1,217.2,142,217.2,141.9,217.3z M147.7,224.7
				c-0.1,0-0.1,0-0.1-0.1c0,0,0.1-0.1,0.1-0.1C147.7,224.6,147.7,224.6,147.7,224.7C147.7,224.7,147.7,224.7,147.7,224.7z
				 M147.8,223.7c0,0.1-0.1,0.1-0.1,0.1c-0.1,0-0.2,0-0.2-0.1c0-0.1,0.1-0.2,0.2-0.2C147.8,223.5,147.8,223.6,147.8,223.7z M152.3,211
				c-0.1,0-0.1,0-0.2,0c0-0.1,0.1-0.1,0.1-0.1C152.3,210.7,152.3,210.8,152.3,211C152.3,210.9,152.3,211,152.3,211z M154,211
				c0.2-0.1,0.2,0.1,0.3,0.2c0,0.1,0,0.2,0,0.3c-0.1,0-0.3,0-0.4-0.1C153.8,211.3,153.9,211.1,154,211z M154.1,212.1
				c0-0.2,0.1-0.4,0.2-0.5c0,0.2,0,0.4-0.1,0.6C154.3,212.2,154.2,212.1,154.1,212.1z M158.7,213.5c0,0.1,0,0.2-0.2,0.2
				c-0.1,0-0.1-0.1-0.1-0.2c0-0.1,0.1-0.2,0.2-0.2C158.7,213.3,158.7,213.4,158.7,213.5z M160,219.3c-0.1,0-0.2,0-0.1-0.1
				c0-0.1,0.1-0.1,0.1-0.1c0.1,0,0.1,0,0.1,0.1C160.1,219.2,160.1,219.2,160,219.3z M160.4,221.8c0-0.1,0-0.2,0.1-0.2
				c0,0,0.1,0,0.1,0.1c0,0.1,0,0.2-0.1,0.2C160.5,221.9,160.4,221.8,160.4,221.8z M160.7,223.9c0,0-0.1,0-0.2,0c0-0.1,0-0.1,0-0.2
				c0.1-0.1,0.2-0.1,0.2,0C160.8,223.7,160.8,223.8,160.7,223.9z M162.2,217.3c-0.1,0-0.2,0-0.2-0.1c0,0,0.1-0.1,0.1-0.1
				c0,0,0.1,0,0.1,0.1C162.2,217.2,162.2,217.3,162.2,217.3z M169.6,208.9c0,0.3-0.3,0.4-0.5,0.5c-0.2,0-0.5,0-0.5-0.2
				c0-0.4,0.3-0.5,0.6-0.6C169.4,208.5,169.5,208.6,169.6,208.9z M168.3,207.9c0-0.4,0.3-0.6,0.7-0.7c0.2-0.1,0.3,0.1,0.3,0.3
				c0,0.3-0.6,0.7-0.8,0.7C168.3,208.2,168.3,208.1,168.3,207.9z M166.1,207.1c0-0.1,0.1-0.1,0.1-0.1c0,0,0.2,0,0.2,0
				c0,0.1,0,0.2-0.2,0.2C166.1,207.2,166.1,207.2,166.1,207.1z M164.2,206.1c0,0,0.1-0.1,0.2-0.1c0.1,0.1,0.1,0.2,0.1,0.3
				c0,0-0.1,0.1-0.2,0.1C164.2,206.3,164.2,206.2,164.2,206.1z M166.4,224.5C166.4,224.5,166.4,224.5,166.4,224.5
				C166.4,224.4,166.4,224.4,166.4,224.5C166.4,224.4,166.4,224.4,166.4,224.5C166.4,224.4,166.4,224.5,166.4,224.5z M167.2,222.5
				C167.2,222.5,167.1,222.5,167.2,222.5c-0.1-0.1-0.1-0.2,0-0.2c0.1,0,0.1,0.1,0.1,0.1C167.3,222.5,167.3,222.5,167.2,222.5z
				 M167.8,224.4c-0.1,0-0.2-0.1-0.2-0.2c0-0.1,0.1-0.2,0.2-0.2c0.1,0,0.2,0.1,0.2,0.2C168,224.3,167.9,224.4,167.8,224.4z
				 M168.3,225.3c-0.1,0-0.2-0.1-0.2-0.2c0-0.1,0-0.2,0.1-0.2c0.1,0,0.2,0.1,0.2,0.2C168.4,225.2,168.4,225.3,168.3,225.3z
				 M168.9,220.3c0,0-0.1,0-0.2-0.1c-0.1-0.1,0-0.2,0.1-0.2c0,0,0.1,0.1,0.1,0.1C169,220.2,169,220.2,168.9,220.3z M168.2,220.1
				c0,0.3,0,0.6,0,0.9c-0.4-0.3-0.5-0.6-0.6-1c-0.2-0.8-0.4-0.8-1-0.3c-0.6,0.6-1.3,0.9-2.2,1.1c-0.3,0.1-0.7,0.1-0.8-0.3
				c-0.1-0.6-0.5-1-0.7-1.4c-0.4-0.7-0.1-1.6,0-2.3c0.1-1,0-1.9-0.1-2.9c0-0.2-0.1-0.3,0-0.5c0.6-1.1,0.3-2.1,0.1-3.2
				c-0.2-1.1-0.2-1.1,0.8-1.5c0.1,0,0.2-0.1,0.3-0.2c0.3-0.3,0.5-0.2,0.7,0.2c0.2,0.4,0.5,0.8,1,0.4c0.1-0.1,0.3-0.1,0.3,0.1
				c0,0.5,0.4,0.7,0.7,0.9c0.5,0.4,0.8,0.2,0.9-0.4c0-0.3-0.1-0.6-0.1-0.9c-0.1-0.2-0.1-0.5,0.2-0.5c0.3,0,0.3,0.3,0.3,0.4
				c0.2,0.5,0.1,1.1,0.1,1.6c0,0.7,0.2,1,0.8,1.2c0.3,0.1,0.5,0.2,0.7,0.3c0.2,0.2,0.4,0.3,0.2,0.6c-0.3,0.6-0.1,1.2,0.1,1.8
				c0.4,1.1,0.3,2.1-0.5,2.9C168.3,217.9,168.1,218.9,168.2,220.1z M170.3,220.7c-0.3,0-0.3-0.4-0.3-0.6c0-0.3,0.1-0.6,0.4-0.6
				c0.4,0,0.4,0.3,0.4,0.5C170.7,220.4,170.7,220.8,170.3,220.7z M171.1,211.7c0,0-0.1-0.1-0.1-0.1c0,0,0.1-0.1,0.1-0.1
				c0,0,0.1,0.1,0.1,0.1C171.2,211.7,171.2,211.7,171.1,211.7z M171.4,217.9c0,0-0.1-0.1-0.1-0.1c0-0.1,0.1-0.1,0.1-0.1
				c0.1,0,0.1,0.1,0.1,0.1C171.5,217.9,171.5,217.9,171.4,217.9z M172.1,216.4c-0.1,0-0.2-0.1-0.1-0.2c0,0,0.1-0.1,0.2-0.1
				c0,0,0.1,0.1,0.1,0.1C172.2,216.3,172.1,216.4,172.1,216.4z M172,215c-0.3,0-0.6-0.3-0.5-0.6c0-0.2,0.2-0.4,0.3-0.6
				c0.1-0.2,0.3-0.3,0.4,0c0.1,0.3,0.2,0.6,0.2,0.8C172.4,215,172.2,215.1,172,215z M172.9,221.6c0,0.1-0.1,0.3-0.3,0.3
				c-0.2-0.1-0.2-0.2-0.2-0.4c0-0.2,0.1-0.3,0.3-0.2C172.8,221.2,172.9,221.4,172.9,221.6z M173.7,217.5c-0.1,0-0.2,0-0.2-0.1
				c0-0.1,0.1-0.2,0.2-0.2c0.1,0,0.2,0,0.2,0.1C173.9,217.4,173.8,217.4,173.7,217.5z M174.6,216.4c0,0-0.1,0-0.2,0c0-0.1,0-0.1,0-0.2
				c0.1-0.1,0.2-0.1,0.2,0C174.7,216.3,174.7,216.4,174.6,216.4z"/>
			<path d="M136.4,215.1c-0.6-0.8-1-1.7-1.5-2.6c-0.2-0.2-0.3-0.5-0.5-0.6c-0.8-0.6-1.5-1.4-1.9-2.3c-0.5-1-1.2-1.7-2-2.4
				c-1.2-1.1-2.7-1-3.8,0.2c-0.3,0.4-0.6,0.7-1,1.1c-0.2,0.2-0.3,0.4-0.3,0.6c-0.1,1.1-0.6,1.9-1.2,2.8c-0.3,0.4-0.5,0.8-0.7,1.3
				c-1.3,3-1.2,6-0.4,9c0.1,0.2,0.1,0.4,0.3,0.5c0.5,0.4,0.6,0.9,1,1.3c0.1,0.2,0.3,0.3,0.1,0.6c-0.2,0.2-0.4,0.3-0.6,0.2
				c-0.5-0.3-1-0.1-1.4,0.1c-0.3,0.2-0.7,0.2-1.1,0.2c-1,0.1-1.8-0.4-2.7-0.6c-1.5-0.3-2.2-1-2.5-2.5c-0.3-1.4,0-2.7,0.3-4.1
				c0.5-1.7,1-3.4,1.3-5.2c0.1-1,0.3-2,0.2-3c-0.1-1.3-0.7-2.3-1.5-3.2c-1-1.2-1.7-1.4-2.9-0.3c-0.9,0.8-1,1.9-1.1,2.9
				c-0.1,1.2,0,2.4-0.4,3.6c-0.6,1.7-0.7,3.6-1.4,5.3c-0.2,0.3-0.2,0.7-0.1,1.1c0.1,0.4,0.1,0.8,0,1.2c-0.4,2.5,0.8,4.5,2.2,6.5
				c0.2,0.3,0.3,0.6,0.6,0.8c1,0.8,2,1.6,3,2.3c0.6,0.4,1.3,0.7,2.1,0.7c0.4,0,0.8,0.2,1.2,0.3c0.8,0.4,1.6,0.6,2.5,0.6
				c0.3,0,0.6,0,0.8,0.1c0.9,0.2,1.7,0.1,2.6,0.1c0.4,0,0.8-0.1,1-0.4c0.7-0.8,1-1.7,0.6-2.8c-0.1-0.3-0.3-0.6-0.4-0.8
				c-0.1-0.3-0.4-0.7-0.2-1c0.3-0.4,0.6,0.1,0.9,0.2c1.1,0.4,2.2,1,3.5,0.6c0.7-0.2,1.4-0.5,2.1-0.7c1.9-0.5,3.1-2,3.7-3.7
				c0.6-1.6,0.9-3.3,0.4-5.1C137.1,217,137,216,136.4,215.1z M131.8,220.7c-0.3,0.2-0.6,0.4-0.7,0.7c-0.8,1.5-2.1,1.6-3.6,1.7
				c-0.7,0-1.2-0.4-1.1-1.1c0.1-0.8-0.3-1.6,0-2.5c-0.1-1,0.2-1.9,0.5-2.9c0.2-0.7,0.6-1.2,1.3-1.5c0.6-0.3,1-0.7,1.2-1.4
				c0.4-1.1,1.6-1.5,2.5-0.7C134.1,214.9,134.6,218.6,131.8,220.7z M134.2,215.7c0,0.1-0.2,0.2-0.2,0.2c-0.2,0.1-0.3,0-0.2,0
				c0.1-0.1,0.2-0.2,0.3-0.3C134.2,215.6,134.3,215.6,134.2,215.7z"/>
		</symbol>
		<symbol id="contact">
			<path d="M78.7,128.2c0.5,0,1,0,1.4,0c0.7,0.1,1.2-0.2,1.6-0.7c0.7-0.9,0.7-2,0.1-3c-0.3-0.5-0.8-0.9-1.1-1.3
				c-0.5-0.7-1.2-0.9-2-0.9c-1.1,0.1-2.2,0.1-3.3,0.3c-1.2,0.2-2.4,0.5-3.7,0.2c-0.2-0.1-0.5,0-0.7,0.1c-0.8,0.3-1.5,0.1-2.2-0.2
				c-0.9-0.4-1.9-0.3-2.7-0.2c-1.8,0.3-3.5,1-5,2c-0.7,0.4-1.4,1-1.4,1.9c-0.2,2-0.3,4-0.5,6c-0.1,1.4-0.3,2.8-0.4,4.2
				c0,0.3-0.1,0.6-0.5,0.7c-0.4,0.1-0.7-0.1-0.9-0.4c-0.9-1.8-2-3.5-2.8-5.4c-0.8-1.7-1.7-3.4-3.2-4.7c-0.7-0.6-1.5-1.1-2.4-1.1
				c-1.5,0.1-2.9,0.6-3.7,2c-0.4,0.7-0.9,1.4-0.6,2.2c0.6,1.2,0.5,2.4,0.5,3.6c0,0.3,0,0.7-0.4,0.8c-0.3,0.1-0.5-0.2-0.6-0.4
				c-0.4-0.7-0.9-1.4-1.3-2.1c-0.9-1.3-1.5-2.9-3.2-3.6c-0.4-0.2-0.8-0.5-1.3-0.5c-0.2,0-0.4,0-0.5-0.1c-0.5-0.6-1.2-0.5-1.8-0.6
				c-1.1-0.1-2.2,0.1-2.9,0.9c-0.8,0.9-1.7,1.7-2.6,2.5c-0.8,0.8-1.7,1.6-2.1,2.7c-0.6,1.5-0.9,3-0.9,4.6c0,1.3-0.1,2.5,0.1,3.8
				c0.1,0.7-0.3,0.9-0.9,0.6c-0.1-0.1-0.2-0.1-0.3-0.2c-1.2-1-2.8-0.6-4.1,0.5c-0.7,0.5-1.4,0.9-2.1,1.2c-0.5,0.2-1.1,0.3-1.6,0.1
				c-1.2-0.4-2.4-0.7-3.7-0.8c-0.6,0-1.2-0.2-1.8-0.4c-1.7-0.5-2.9-2.9-2.3-4.6c0.3-0.7,0.6-1.3,0.9-1.9c0.6-1.2,1.3-2.2,2.4-3
				c0.4-0.3,0.9-0.6,1.2-1.1c0.2-0.3,0.5-0.5,0.8-0.6c1.1-0.5,2.2-0.9,3.5-1c0.8-0.1,0.9,0,1.2,0.8c0.1,0.4,0.4,0.8,0.4,1.2
				c0.1,1.1,0.8,1.6,1.7,1.9c0.2,0.1,0.4,0.2,0.6,0.3c1,0.5,2.9-0.2,3.1-1.4c0.2-1.6,0.1-3.2-1-4.5c-0.5-0.6-0.9-1.1-1.3-1.7
				c-0.2-0.4-0.5-0.7-0.8-0.9c-0.3-0.2-0.6-0.4-0.8-0.7c-0.3-0.5-0.9-0.8-1.4-0.9c-1.4-0.2-2.8-0.7-4.1,0.3c-0.1,0.1-0.3,0.1-0.4,0.1
				c-1.9,0-3.3,1.4-5,2c-1,0.3-1.7,1.1-2.4,1.9c-1.1,1.2-2.4,2.2-2.9,3.8c-0.1,0.2-0.2,0.4-0.3,0.5c-0.4,0.4-0.6,1-0.7,1.6
				c-0.1,0.3-0.1,0.6-0.2,0.9c-0.8,2.1-1,4.3,0,6.4c0.4,0.8,0.5,1.9,1.2,2.5c1.1,0.8,1.9,1.8,3,2.6c1.3,1,2.8,1.8,4.4,2.3
				c1.4,0.4,2.7,1.1,4.1,1.1c0.1,0,0.1,0,0.2,0.1c1.2,0.6,2.4,0.4,3.5,0.1c2.2-0.6,4.3-1.7,6-3.3c0.2-0.2,0.4-0.4,0.4-0.7
				c0.1-0.8,0.5-1.5,0-2.3c-0.1-0.1-0.1-0.4,0.1-0.5c0.2-0.2,0.4,0,0.5,0.2c0.7,0.9,1.5,1.7,2.2,2.6c1.1,1.3,2.5,2,3.9,2.8
				c1.4,0.9,3,0.4,4.5,0.4c1.8-0.1,3.4-1.1,4.7-2.4c0.3-0.2,0.4-0.5,0.6-0.8c0.4-0.8,0.9-0.9,1.5-0.2c0.1,0.1,0.3,0.3,0.4,0.5
				c1,0.8,2,1.7,3.5,1.4c0.3-0.1,0.7-0.1,0.9-0.4c0.7-0.7,1.3-1.5,0.8-2.6c-0.1-0.3,0-0.5,0-0.8c0.1-0.3,0.1-0.5,0-0.8
				c-0.3-1-0.5-2-0.9-3c-0.4-0.8-0.3-1.7-0.3-2.5c0-0.3,0-0.6,0.4-0.7c0.3-0.1,0.5,0.2,0.6,0.4c0.3,0.7,0.8,1.2,1.2,1.8
				c0.9,1.5,1.6,3,2.7,4.4c0.7,0.8,1.1,1.8,2,2.4c0.5,0.3,0.9,0.7,1.2,1.2c0.3,0.5,0.8,0.9,1.4,1.2c0.6,0.2,1.1,0.5,1.6,0.8
				c0.7,0.5,1.7,0.4,2.5,0.5c0.2,0,0.4-0.1,0.6-0.3c1.2-1.1,2-2.4,1.6-4.1c-0.1-0.6-0.4-1.1-0.3-1.7c0.1-0.6-0.2-1.1-0.4-1.7
				c-0.2-0.6-0.6-1.2-0.8-1.8c-0.3-0.9-0.6-1.9-0.4-2.9c0-0.3,0.1-0.6,0-0.8c-0.3-0.9-0.1-1.9,0-2.8c0.1-0.5,0.2-1.1,0.1-1.6
				c0-0.7,0.2-1.3,1-1.5c0.4-0.1,0.8-0.3,1.1-0.5c0.8-0.3,1.1-0.2,1.6,0.5c0.3,0.4,0.3,0.8,0.3,1.3c0,1.1-0.4,2.2-0.4,3.4
				c-0.1,2.2-0.4,4.4-0.3,6.6c0,0.4-0.2,0.9-0.1,1.3c0.5,1.6,1.3,2.7,2.9,3.4c1.5,0.7,3.5-0.6,3.3-2.3c-0.1-1.1-0.2-2.3-0.4-3.4
				c-0.2-1.4-0.4-2.7-0.3-4.1c0.1-1.3,0.4-2.5,0.5-3.8c0.1-1.2,0.3-2.5,0.5-3.7c0.2-0.7,0.5-1.1,1.2-1.3
				C76.8,128.2,77.8,128.1,78.7,128.2z M40.3,141.1c-0.2,1.4-1.9,2.7-3.2,2.7c-0.6,0-1.1-0.5-1.6-0.6c-1.1-0.3-1.6-1.2-2-2.2
				c-0.2-0.5-0.1-1,0-1.3c-0.1-1.2,0.1-2.2,0.5-3.2c0.3-0.6,0.5-0.8,1.1-0.5c0.9,0.4,1.7,0.1,2.6-0.2c1.2-0.5,1.7-0.2,2.4,1
				C40.8,138.2,40.5,139.7,40.3,141.1z"/>
			<path d="M92.2,131.8c-0.3-1.4,0-2.9-0.4-4.2c-0.2-0.7-0.4-1.3-0.4-2c0-1-0.6-1.5-1.3-2.1c-0.9-0.7-1.7-0.8-2.8-0.5
				c-0.9,0.2-1.4,0.7-1.7,1.5c-0.3,1.1-0.9,2-1.5,3c-1.4,2.6-3.1,5-4.5,7.6c-0.2,0.4-0.4,0.8-0.6,1.2c-0.4,0.8-0.6,1.8-1.3,2.4
				c-0.2,0.2-0.2,0.4-0.3,0.7c-0.3,1.1-0.9,2-1.4,3c-0.4,0.8-0.8,1.6-0.6,2.6c0.4,1.2,0.8,2.2,2,2.8c0.6,0.3,1.3,0.4,2,0.5
				c0.6,0.1,0.9,0,1.2-0.5c0.7-1,1.5-1.9,2.9-2.1c1.2-0.2,1.6,0,1.8,1.2c0.1,0.6,0.2,1.1,0.5,1.6c0.2,0.5,0.6,0.9,0.8,1.4
				c0.3,1.3,1.3,1.8,2.4,2.2c1,0.3,1.8,0,2.5-0.8c0.7-0.8,0.7-1.8,0.7-2.8c0-0.4,0.1-0.8-0.3-1.1c-0.5-0.4-0.4-1-0.4-1.5
				c0-1.1,0-2.3,0-3.4c0-1.4-0.2-2.9,0.1-4.3C92,136,91.8,133.9,92.2,131.8z M87,140.4c-0.3,0.5-0.7,1-1.2,1.4
				c-0.9,0.5-1.9,0.6-2.7-0.1c-0.8-0.7-1-1.7-0.4-2.6c1.2-1.9,2.5-3.9,3.7-5.8c0.1-0.2,0.4-0.4,0.6-0.4c0.5,0,0.4,0.5,0.4,0.8
				c0,0.8,0,1.6,0,1.8C87.7,137.5,88,139,87,140.4z"/>
			<path d="M126.3,129.4c-0.5-0.6-1.3-0.8-2.1-0.8c-0.8,0-1.6,0.1-2.4,0c-1.3-0.2-2.5-0.2-3.8-0.3c-0.7-0.1-1.4,0.2-2.1,0.1
				c-1.3-0.1-2.6,0.1-3.9-0.2c-0.4-0.1-0.9-0.1-1.3,0c-1.4,0.1-2.4,1.3-2,2.6c0.2,0.9,0.3,1.8,1.3,2.2c0.2,0.1,0.3,0.3,0.4,0.5
				c0.3,0.8,0.9,1,1.7,1c0.7,0,1.4-0.1,2.2-0.1c0.7,0,1.1,0.3,1.1,1c0,0.2,0,0.5,0,0.7c-0.2,0.7-0.2,1.4-0.1,2.2c0.1,0.5,0,1-0.1,1.4
				c-0.1,0.4-0.1,0.8,0.3,1.1c0.3,0.2,0.2,0.4,0.1,0.6c-0.3,0.7-0.3,1.5-0.3,2.2c0,1,0.1,2.1-0.1,3.1c-0.2,1.3,0.6,2.5,0.8,3.7
				c0,0.1,0.1,0.1,0.1,0.2c0.6,0.3,0.9,0.9,1.4,1.4c0.7,0.7,1.5,0.8,2.4,0.8c0.5,0,0.8-0.2,1-0.6c0.4-0.9,1.2-1.6,1-2.7
				c0-0.2,0-0.4,0-0.6c0.1-1,0.1-2-0.6-2.8c-0.2-0.2-0.2-0.5-0.3-0.8c-0.4-1.7-0.5-3.5-0.6-5.3c-0.1-1.1,0.2-2.2,0.5-3.3
				c0.4-1.4,1.2-2.4,2.8-1.8c0.4,0.2,1,0.1,1.4,0.1c0.6,0,1.1-0.2,1.6-0.7c0.6-0.6,0.6-1.5,0.7-2.2C127.5,131.2,127,130.2,126.3,129.4
				z M113.5,132.9C113.4,132.9,113.4,132.9,113.5,132.9c-0.1-0.1,0-0.1,0-0.2c0,0,0.1,0,0.1,0C113.5,132.8,113.5,132.9,113.5,132.9z"
				/>
			<path d="M111.6,141.7c-0.5-0.3-1-0.5-1.5-0.7c-1.1-0.4-2.4-0.1-2.9,0.7c-0.7,1.2-1.7,1.7-3.1,1.8c-0.3,0-0.5,0.1-0.8,0.1
				c-0.3,0-0.7,0-1-0.2c-0.4-0.3-1-0.4-1.4-0.6c-1.7-0.9-2-1.5-2-3c0-0.8,0.4-1.3,0.8-1.8c0.7-0.9,1.5-1.8,2.9-1.7c1,0.1,2.4-1,2.6-2
				c0.2-1.1,0-2.3-0.4-3.4c-0.2-0.5-0.5-0.9-0.8-1.4c-0.3-0.4-0.7-0.8-1.2-0.8c-1.1,0-2.2,0.1-3.2,0.7c-1.2,0.7-2.2,1.6-3.1,2.7
				c-1.2,1.4-2.4,2.9-3,4.8c-0.2,0.7-0.4,1.4-0.3,2.1c0.1,1,0.2,1.9,0.5,2.9c0.3,1.2,0.8,2.3,1.6,3.2c0.4,0.4,0.8,0.8,1.2,1.3
				c0.3,0.3,0.6,0.6,0.9,0.8c0.9,0.7,1.8,1.1,2.9,1.6c1.6,0.7,3.2,0.8,4.9,0.8c0.7-0.2,1.5,0.2,2.2-0.2c0.9-0.5,1.9-0.7,2.8-1
				c1.3-0.4,2.2-1.4,2.1-2.8c0-0.9-0.1-1.8-0.3-2.7C112.1,142.4,112,141.9,111.6,141.7z M97.5,132.5c0,0-0.1-0.1-0.1-0.1
				c0-0.1,0-0.2,0.1-0.2c0,0,0.1,0.1,0.1,0.1C97.6,132.4,97.6,132.5,97.5,132.5z"/>
		</symbol>

</defs>
	<!-- <use xlink:href="#audio" />
	<use xlink:href="#blog" />
	<use xlink:href="#film" />
	<use xlink:href="#contact" />
	<use xlink:href="#bandcamp"/>
	<use xlink:href="#soundcloud" />
	<use xlink:href="#facebook"/>
	<use xlink:href="#twitter"/> -->

	<!-- <view id='audio' viewBox="0 42 86 36"/>
<view id='film' viewBox='0 80 80 36'/>
<view id='blog' viewBox='0 0 75 40'/>
<view id='contact' viewBox='0 119 133 36'/>
<view id='bandcamp' viewBox='0 275 175 36'/>
<view id='soundcloud' viewBox='0 198 178.5 36'/>
<view id='facebook' viewBox='0 159 145 36'/> -->
<!-- <view id='soundcloud' viewBox='0 198 178.5 36'/> -->
<!-- <view id='twitter' viewBox="0 237 145 36"/> -->
</svg>
